<svg width="100%" height="100%" viewBox="0 0 1440 618" fill="none" xmlns="http://www.w3.org/2000/svg">
<g clip-path="url(#clip0_2880_708178)">
<rect width="1440" height="617.14" fill="#1F1F23"/>
<path d="M560.328 465.993L563.204 475.759" stroke="#5A554F" stroke-width="2" stroke-miterlimit="2" stroke-linecap="round"/>
<path d="M552.883 460.303L560.957 473.625" stroke="#5A554F" stroke-width="2" stroke-miterlimit="2" stroke-linecap="round"/>
<path d="M537.23 445.48C551.306 463.006 561.969 478.296 588.047 497.112" stroke="#5A554F" stroke-width="2" stroke-miterlimit="2" stroke-linecap="round"/>
<path d="M579.066 492.341C679.005 545.443 756.595 545.914 857.115 493.896" stroke="#5A554F" stroke-width="2" stroke-miterlimit="2" stroke-linecap="round"/>
<path d="M847.297 498.968C874.827 479.549 884.715 465.148 899.183 447.504" stroke="#5A554F" stroke-width="2" stroke-miterlimit="2" stroke-linecap="round"/>
<path d="M874.684 475.851L883.188 462.149" stroke="#5A554F" stroke-width="2" stroke-miterlimit="2" stroke-linecap="round"/>
<path d="M872.332 478.047L875.469 467.756" stroke="#5A554F" stroke-width="2" stroke-miterlimit="2" stroke-linecap="round"/>
<path fill-rule="evenodd" clip-rule="evenodd" d="M1571.05 539.612C1620.17 395.565 1605.87 451.139 1635.42 297.844C1643.39 151.911 1644.49 207.109 1632.7 57.1402C1602.06 -87.2767 1615.99 -35.7755 1570.31 -166.208C1506.72 -293.765 1532.13 -248.93 1458.26 -360.371C1336.64 -502.945 1296.36 -537.846 1128.27 -632.637C962.389 -702.594 912.769 -715.882 724.263 -727.511C535.609 -717.993 485.91 -705.266 319.377 -637.158C150.494 -544.311 110.106 -510.173 -13.1806 -368.602C-88.0929 -257.999 -62.2653 -302.556 -127.066 -175.703C-173.983 -45.7832 -159.554 -97.1601 -191.58 46.9359C-204.78 196.686 -203.164 141.599 -196.584 287.596C-168.476 441.233 -182.246 385.512 -134.512 530.071C-65.7912 668.899 -96.5412 617.684 -2.81032 754.064C111.484 877.496 66.8307 835.085 193.545 937.065C342.634 1024.36 286.219 996.083 440.51 1057.88C611.384 1098.07 548.306 1087.53 715.579 1101.1C882.947 1089.41 819.896 1099.22 991.05 1060.96C1145.92 1000.89 1089.24 1028.53 1239.14 942.914C1366.82 842.356 1321.76 884.264 1437.23 762.119C1532.24 626.807 1501 677.675 1571.05 539.612L1571.05 539.612Z" stroke="#5A554F" stroke-width="2" stroke-miterlimit="2" stroke-linecap="round"/>
<path d="M859.094 490.366L862.028 464.371" stroke="#5A554F" stroke-width="2" stroke-miterlimit="2" stroke-linecap="round"/>
<path d="M862.027 464.366L863.626 484.318" stroke="#5A554F" stroke-width="2" stroke-miterlimit="2" stroke-linecap="round"/>
<path d="M863.629 484.32L880.137 423.846" stroke="#5A554F" stroke-width="2" stroke-miterlimit="2" stroke-linecap="round"/>
<path d="M880.136 423.849C878.944 451.648 879.934 441.555 875.473 467.757" stroke="#5A554F" stroke-width="2" stroke-miterlimit="2" stroke-linecap="round"/>
<path d="M875.473 467.757C906.235 403.796 892.029 427.177 936.15 365.409" stroke="#5A554F" stroke-width="2" stroke-miterlimit="2" stroke-linecap="round"/>
<path d="M936.148 365.406C921.883 412.886 919.771 414.254 899.184 447.507" stroke="#5A554F" stroke-width="2" stroke-miterlimit="2" stroke-linecap="round"/>
<path d="M899.184 447.51L936.506 419.957" stroke="#5A554F" stroke-width="2" stroke-miterlimit="2" stroke-linecap="round"/>
<path d="M936.505 419.955C898.766 466.106 895.64 466.705 857.113 493.895" stroke="#5A554F" stroke-width="2" stroke-miterlimit="2" stroke-linecap="round"/>
<path d="M857.113 493.895C893.624 490.443 878.941 496.227 921.941 465.792" stroke="#5A554F" stroke-width="2" stroke-miterlimit="2" stroke-linecap="round"/>
<path d="M921.941 465.792C879.871 474.293 894.447 468.025 857.816 491.554" stroke="#5A554F" stroke-width="2" stroke-miterlimit="2" stroke-linecap="round"/>
<path d="M869.363 480.804C881.733 436.887 873.968 457.221 905.326 389.35" stroke="#5A554F" stroke-width="2" stroke-miterlimit="2" stroke-linecap="round"/>
<path d="M905.326 389.35C898.396 430.618 896.762 432.064 883.188 462.149" stroke="#5A554F" stroke-width="2" stroke-miterlimit="2" stroke-linecap="round"/>
<path d="M883.188 462.149C921.488 413.714 904.634 430.257 955.495 389.126L970.166 356.167" stroke="#5A554F" stroke-width="2" stroke-miterlimit="2" stroke-linecap="round"/>
<path d="M970.167 356.166C916.408 404.125 934.24 385.32 893.697 438.872L878.465 469.763" stroke="#5A554F" stroke-width="2" stroke-miterlimit="2" stroke-linecap="round"/>
<path d="M845.687 499.811C845.102 484.324 844.207 498.274 851.591 426.131" stroke="#5A554F" stroke-width="2" stroke-miterlimit="2" stroke-linecap="round"/>
<path d="M851.594 426.127C859.275 448.609 856.949 439.806 862.031 464.368" stroke="#5A554F" stroke-width="2" stroke-miterlimit="2" stroke-linecap="round"/>
<path d="M862.027 464.368C882.52 385.716 873.144 414.526 904.097 338.799" stroke="#5A554F" stroke-width="2" stroke-miterlimit="2" stroke-linecap="round"/>
<path d="M904.098 338.799C906.757 369.008 906.567 357.4 905.326 389.348" stroke="#5A554F" stroke-width="2" stroke-miterlimit="2" stroke-linecap="round"/>
<path d="M905.324 389.348C950.233 321.909 931.995 345.669 985.933 286.38" stroke="#5A554F" stroke-width="2" stroke-miterlimit="2" stroke-linecap="round"/>
<path d="M985.937 286.382C978.911 330.873 982.394 314.814 970.168 356.166" stroke="#5A554F" stroke-width="2" stroke-miterlimit="2" stroke-linecap="round"/>
<path d="M970.164 356.166C1034.57 317.685 1009.5 330.033 1080.28 303.526" stroke="#5A554F" stroke-width="2" stroke-miterlimit="2" stroke-linecap="round"/>
<path d="M1080.29 303.527C1049.63 374.554 1039.27 398.929 962.653 471.103C884.203 526.912 858.713 536.394 771.037 554.425C674.517 560.613 648.076 555.467 563.256 524.232C468.383 473.514 452.369 452.327 404.179 391.265C360.288 316.804 350.328 292.234 338.232 200.336C338.303 110.508 343.731 86.9972 376.133 8.26463C420.168 -68.9911 437.542 -86.7993 499.792 -136.552C569.306 -179.154 590.833 -188.129 674.656 -203.278C810.643 -210.896 905.781 -181.573 1012.77 -69.1569C1061.02 -3.67743 1073.07 18.1351 1095.47 105.255C1102.75 164.413 1101.65 141.574 1101.09 204.602C1092.2 267.501 1096.79 244.722 1080.29 303.527C1159.34 288.115 1127.58 291.452 1217.83 287.724C1184.21 369.554 1198.28 340.421 1155.41 414.065C1088.6 499.234 1065.8 528.728 934.597 598.161C815.414 641.186 778.388 647.966 643.357 637.669C521.601 610.869 485.608 596.965 377.675 516.998C315.672 456.047 337.354 480.999 282.189 409.181C240.027 335.072 253.813 364.349 220.979 282.148C200.812 201.248 206.119 232.437 196.677 146.471C198.614 64.9545 195.587 95.7868 208.715 12.2249C232.339 -68.0988 222.16 -39.4979 254.027 -111.818C296.44 -182.227 279.683 -157.564 327.829 -218.569C411.13 -300.732 438.913 -317.465 537.124 -360.443C640.409 -391.562 671.432 -396.25 785.499 -388.807C897.526 -367.957 926.249 -356.149 1020.07 -299.36C1104.43 -233.091 1127.91 -209.513 1188.52 -106.59C1219.7 -33.9243 1209.8 -62.6251 1232.65 17.9525C1244.41 97.7296 1242.2 66.8163 1243.41 152.326C1233.15 238.172 1238.76 207.051 1217.83 287.724C1313.61 296.9 1278.11 291.472 1372.81 312.708M1372.81 312.708C1331.26 420.724 1348.86 382.181 1294.57 480.05C1222.81 575.102 1251.18 542.022 1169.65 623.088C1072.02 695.85 1109.39 671.533 1005.89 727.711C846.868 786.493 797.713 795.491 617.892 781.501C501.719 755.369 544.987 768.861 428.871 724.484C325.901 667.145 363.042 691.878 266.112 618.034C185.355 536.059 213.403 569.457 142.557 473.606C89.2019 375.136 106.439 413.886 65.9161 305.399C42.1628 199.296 48.072 240.053 38.6119 128.054C43.8352 22.6187 38.9008 62.3159 58.6414 -45.1125C91.6924 -147.727 77.6781 -111.276 120.889 -203.113C202.586 -331.804 233.143 -360.812 343.363 -442.542C464.264 -511.604 501.041 -525.799 643.646 -549.964C788.517 -557.551 827.737 -551.324 958.764 -511.473C1092.82 -452.908 1125.39 -429.755 1226.43 -331.935C1288.97 -254.56 1267.08 -285.917 1322.66 -196.39C1364.99 -104.084 1351.34 -140.667 1383.4 -37.7031C1401.25 64.9507 1397.35 25.0007 1401.79 135.679C1391.26 247.57 1397.56 206.888 1372.81 312.708ZM1372.81 312.708C1473.56 347.87 1436.87 333.216 1532.49 377.684C1484.01 514.003 1504.84 465.217 1439.77 589.52C1356.39 705.29 1392.03 663.482 1286.42 772.806C1164.54 866.938 1211.27 835.445 1081.57 908.194C934.551 964.253 989.431 947.302 842.002 979.709C690.861 990.09 748.737 990.958 590.363 978.301C443.285 944.255 497.985 961.818 351.486 904.111C222.477 829.909 268.889 861.919 147.931 766.439C43.3506 655.933 78.5931 698.133 -3.67529 581.446C-67.554 456.422 -47.1921 505.435 -94.3778 368.585C-120.514 235.649 -114.488 286.53 -122.586 147.134C-112.743 16.8301 -120.078 65.6807 -92.406 -66.2083C-48.7604 -191.392 -66.9947 -147.053 -11.5264 -258.412C59.6547 -365.608 31.8794 -328.225 110.638 -420.166C236.226 -535.413 276.583 -562.608 439.686 -630.024C598.593 -675.327 645.868 -682.066 820.151 -671.223C991.995 -640.819 1036.4 -623.512 1182.57 -540.148C1278.06 -469.833 1243.26 -499.259 1334.97 -413.307C1412.86 -320.496 1385.43 -358.2 1455.6 -250.206C1510 -138.226 1492.18 -182.803 1534.65 -57.1073C1559.84 68.9167 1553.78 19.7978 1562.8 156.562C1553.38 295.886 1559.9 245.025 1532.49 377.684L1611.91 419.779" stroke="#5A554F" stroke-width="2" stroke-miterlimit="2" stroke-linecap="round"/>
<path d="M828.509 508.698C826.374 441.605 825.717 468.084 832.278 392.167" stroke="#5A554F" stroke-width="2" stroke-miterlimit="2" stroke-linecap="round"/>
<path d="M832.281 392.166C845.116 411.732 840.738 403.884 851.592 426.129" stroke="#5A554F" stroke-width="2" stroke-miterlimit="2" stroke-linecap="round"/>
<path d="M851.594 426.129C870.523 342.736 861.864 373.768 890.383 290.658" stroke="#5A554F" stroke-width="2" stroke-miterlimit="2" stroke-linecap="round"/>
<path d="M890.383 290.656C900.414 318.941 897.361 307.855 904.1 338.8" stroke="#5A554F" stroke-width="2" stroke-miterlimit="2" stroke-linecap="round"/>
<path d="M904.098 338.8C946.227 263.769 927.774 291.997 983.275 215.624" stroke="#5A554F" stroke-width="2" stroke-miterlimit="2" stroke-linecap="round"/>
<path d="M983.277 215.628C987.607 257.841 987.142 241.598 985.937 286.384" stroke="#5A554F" stroke-width="2" stroke-miterlimit="2" stroke-linecap="round"/>
<path d="M985.938 286.384C1084.57 205.273 1119.59 189.154 1243.41 152.326C1382.93 128.995 1436.01 125.095 1642.07 176.233" stroke="#5A554F" stroke-width="2" stroke-miterlimit="2" stroke-linecap="round"/>
<path d="M827.021 509.47C813.591 493.477 819.125 499.321 802.497 484.024C800.899 414.546 800.374 441.692 805.491 364.64" stroke="#5A554F" stroke-width="2" stroke-miterlimit="2" stroke-linecap="round"/>
<path d="M805.488 364.639C822.557 380.047 816.45 373.671 832.279 392.167" stroke="#5A554F" stroke-width="2" stroke-miterlimit="2" stroke-linecap="round"/>
<path d="M832.281 392.167C848.455 304.639 841.072 337.582 865.357 248.036" stroke="#5A554F" stroke-width="2" stroke-miterlimit="2" stroke-linecap="round"/>
<path d="M865.355 248.036C881.947 272.57 876.282 262.742 890.38 290.658" stroke="#5A554F" stroke-width="2" stroke-miterlimit="2" stroke-linecap="round"/>
<path d="M890.383 290.658C929.089 205.577 912.175 238.197 962.988 148.674" stroke="#5A554F" stroke-width="2" stroke-miterlimit="2" stroke-linecap="round"/>
<path d="M962.984 148.673C977.692 187.94 973.159 172.518 983.274 215.626" stroke="#5A554F" stroke-width="2" stroke-miterlimit="2" stroke-linecap="round"/>
<path d="M983.277 215.626L1035.65 158.173" stroke="#5A554F" stroke-width="2" stroke-miterlimit="2" stroke-linecap="round"/>
<path d="M1035.65 158.173C1044.17 234.115 1044.13 273.689 1003.97 365.092L955.497 389.126L936.508 419.956" stroke="#5A554F" stroke-width="2" stroke-miterlimit="2" stroke-linecap="round"/>
<path d="M936.508 419.955C993.01 397.469 970.991 403.562 1033.33 394.782C1103.32 399.386 1075.12 394.618 1155.41 414.063C1289.5 467.599 1338.63 499.169 1512.69 654.651" stroke="#5A554F" stroke-width="2" stroke-miterlimit="2" stroke-linecap="round"/>
<path d="M1635.42 297.846C1444.11 224.57 1359.4 199.397 1161.78 233.007C1142.19 305.33 1150.97 279.288 1122.71 346.266C1047.44 351.443 1074.51 346.814 1003.97 365.095C966.564 426.358 962.95 427.434 921.941 465.796C1095.98 488.495 1234.8 697.452 1345.54 859.121" stroke="#5A554F" stroke-width="2" stroke-miterlimit="2" stroke-linecap="round"/>
<path d="M824.684 510.677C852.81 511.619 841.812 508.513 872.98 525.965C983.838 634.916 1057.45 843.889 1120.1 1010.9" stroke="#5A554F" stroke-width="2" stroke-miterlimit="2" stroke-linecap="round"/>
<path d="M754.406 530.207C764.687 536.657 755.078 536.486 805.417 526.169" stroke="#5A554F" stroke-width="2" stroke-miterlimit="2" stroke-linecap="round"/>
<path d="M805.418 526.169L790.234 522.872" stroke="#5A554F" stroke-width="2" stroke-miterlimit="2" stroke-linecap="round"/>
<path fill-rule="evenodd" clip-rule="evenodd" d="M771.038 554.422L781.07 588.82L717.875 592.895L717.971 537.863L762.118 535.042L771.038 554.422Z" stroke="#5A554F" stroke-width="2" stroke-miterlimit="2" stroke-linecap="round"/>
<path d="M739.648 531.151C739.037 527.594 737.307 528.121 748.672 530.575" stroke="#5A554F" stroke-width="2" stroke-miterlimit="2" stroke-linecap="round"/>
<path d="M778.514 525.273L774.844 508.497" stroke="#5A554F" stroke-width="2" stroke-miterlimit="2" stroke-linecap="round"/>
<path d="M774.84 508.496C795.456 519.305 791.198 516.827 796.565 520.629" stroke="#5A554F" stroke-width="2" stroke-miterlimit="2" stroke-linecap="round"/>
<path d="M807.222 516.862L802.499 484.025C783.298 470.518 790.523 475.006 770.872 464.764C770.046 395.948 769.651 423.095 773.036 345.241" stroke="#5A554F" stroke-width="2" stroke-miterlimit="2" stroke-linecap="round"/>
<path d="M773.035 345.237C793.205 355.554 785.786 351.034 805.491 364.638" stroke="#5A554F" stroke-width="2" stroke-miterlimit="2" stroke-linecap="round"/>
<path d="M805.488 364.638C817.357 277.995 811.357 312.873 830.872 213.579" stroke="#5A554F" stroke-width="2" stroke-miterlimit="2" stroke-linecap="round"/>
<path d="M830.871 213.581C852.829 232.863 844.969 224.876 865.354 248.037" stroke="#5A554F" stroke-width="2" stroke-miterlimit="2" stroke-linecap="round"/>
<path d="M865.355 248.034C898.241 154.2 883.903 190.616 926.904 89.7515" stroke="#5A554F" stroke-width="2" stroke-miterlimit="2" stroke-linecap="round"/>
<path d="M926.902 89.7544C950.734 123.618 942.564 110.014 962.984 148.675" stroke="#5A554F" stroke-width="2" stroke-miterlimit="2" stroke-linecap="round"/>
<path d="M962.984 148.675L1010.73 78.9297" stroke="#5A554F" stroke-width="2" stroke-miterlimit="2" stroke-linecap="round"/>
<path d="M1010.73 78.9278C1028.7 125.356 1023.13 107.097 1035.65 158.172" stroke="#5A554F" stroke-width="2" stroke-miterlimit="2" stroke-linecap="round"/>
<path d="M1035.65 158.171C1145.4 61.0784 1182.11 39.8075 1307.14 -14.2676C1321.75 76.741 1318.77 41.4143 1321.41 139.28C1310.85 237.849 1316.86 202.074 1293.89 295.008C1244.25 419.657 1237.82 422.654 1172.91 506.904C1250.53 565.261 1220.43 539.921 1303.78 615.743L1227.82 692.746C1083.96 801.81 1074.23 800.894 938.941 851.649C905.817 735.498 891.635 680.958 842.981 576.017L781.07 588.821C816.155 747.011 835.503 924.186 855.064 1091.35" stroke="#5A554F" stroke-width="2" stroke-miterlimit="2" stroke-linecap="round"/>
<path d="M576.199 1089.8C584.396 1025.26 637.972 557.096 681.411 529.8" stroke="#5A554F" stroke-width="2" stroke-miterlimit="2" stroke-linecap="round"/>
<path d="M311.945 1006.38C377.841 835.946 432.696 686.259 533.816 552.72C569.166 518.513 556.539 527.923 589.187 509.982L611.329 509.484" stroke="#5A554F" stroke-width="2" stroke-miterlimit="2" stroke-linecap="round"/>
<path d="M1387 -443.914C1220.74 -346.117 1086.45 -228.28 926.902 89.7549" stroke="#5A554F" stroke-width="2" stroke-miterlimit="2" stroke-linecap="round"/>
<path d="M926.903 89.7546C850.672 6.26315 782.388 -14.0119 687.001 -8.4714C594.437 8.84186 531.5 44.3046 476.518 145.954C453.736 204.973 451.185 222.307 452.243 283.399C461.907 348.706 469.24 365.783 500.38 417.516C540.078 467.083 543.572 467.076 578.174 489.991" stroke="#5A554F" stroke-width="2" stroke-miterlimit="2" stroke-linecap="round"/>
<path d="M991.053 1060.96C958.013 924.654 970.108 973.398 938.94 851.651C800.636 881.574 851.604 873.895 716.645 883.013C581.737 872.382 632.609 880.621 494.666 849.166C529.253 732.058 544.465 677.112 592.936 574.62C521.985 548.339 548.147 560.435 478.547 522.977C524.315 494.567 507.937 501.924 550.29 489.277L579.066 492.341" stroke="#5A554F" stroke-width="2" stroke-miterlimit="2" stroke-linecap="round"/>
<path d="M579.066 492.34C541.836 465.469 556.469 472.487 514.695 463.515C463.597 469.627 483.297 464.824 428.229 486.079C278.919 577.391 200.391 691.521 87.957 852.082" stroke="#5A554F" stroke-width="2" stroke-miterlimit="2" stroke-linecap="round"/>
<path d="M1220.73 -580.5C1104.06 -457.13 1024.69 -343.052 908.322 -46.2251C856.567 103.874 857.115 108.232 830.875 213.582" stroke="#5A554F" stroke-width="2" stroke-miterlimit="2" stroke-linecap="round"/>
<path d="M830.874 213.58C768.49 171.628 718.811 165.459 649.44 188.561C575.222 224.549 548.393 269.928 533.167 336.727C528.673 382.58 529.043 406.074 552.881 460.301" stroke="#5A554F" stroke-width="2" stroke-miterlimit="2" stroke-linecap="round"/>
<path d="M552.88 460.301L521.562 419.587" stroke="#5A554F" stroke-width="2" stroke-miterlimit="2" stroke-linecap="round"/>
<path d="M521.562 419.587L537.23 445.481" stroke="#5A554F" stroke-width="2" stroke-miterlimit="2" stroke-linecap="round"/>
<path d="M537.231 445.48C490.836 410.269 509.288 421.187 455.877 399.158C390.834 389.224 415.911 390.62 345.983 394.445C164.851 436.275 78.1399 509.917 -77.2422 645.756" stroke="#5A554F" stroke-width="2" stroke-miterlimit="2" stroke-linecap="round"/>
<path d="M440.513 1057.88C474.888 921.944 462.314 970.551 494.665 849.164C369.613 800.679 415.467 822.905 293.978 754.2C189.955 673.594 226.802 707.216 132.074 609.188C253.949 500.595 285.978 482.196 383.779 442.915C338.45 384.786 353.93 408.147 315.41 341.745C390.455 347.764 363.506 342.837 433.643 361.901C461.595 408.739 450.391 392.268 483.037 433.267C568.814 515.224 624.735 530.859 717.969 537.864C717.155 477.424 717.038 537.572 718.019 399.045C697.528 400.325 685.448 399.606 649.576 417.651" stroke="#5A554F" stroke-width="2" stroke-miterlimit="2" stroke-linecap="round"/>
<path d="M649.576 417.655C646.138 336.28 648.298 367.705 639.587 279.731C671.672 263.954 681.488 260.932 718.908 258.651L719.954 84.689C771.015 88.2805 784.412 92.4756 827.997 113.872C864.604 -40.5883 877.486 -86.754 933.19 -248.15C870.091 -277.076 893.577 -267.784 830.718 -287.799C861.443 -451.617 870.353 -490.239 898.885 -599.629C750.814 -626.097 707.018 -628.113 548.487 -601.586C529.573 -667.618 536.697 -643.87 517.496 -705.418" stroke="#5A554F" stroke-width="2" stroke-miterlimit="2" stroke-linecap="round"/>
<path d="M556.911 466.947C538.887 429.115 549.237 445.919 509.455 391.91C456.416 343.355 477.469 359.578 416.675 322.225C318.654 284.176 284.617 276.759 144.936 288.581C29.749 313.093 6.83566 316.354 -174.227 409.786" stroke="#5A554F" stroke-width="2" stroke-miterlimit="2" stroke-linecap="round"/>
<path d="M1031.24 -673.561C890.07 -390.632 800.956 19.8824 773.033 345.239C662.659 306.145 581.017 380.043 571.793 482.689" stroke="#5A554F" stroke-width="2" stroke-miterlimit="2" stroke-linecap="round"/>
<path d="M571.793 482.689C553.748 413.012 552.905 423.656 562.869 378.73" stroke="#5A554F" stroke-width="2" stroke-miterlimit="2" stroke-linecap="round"/>
<path d="M562.871 378.728C580.806 456.218 576.586 430.376 582.557 493.15" stroke="#5A554F" stroke-width="2" stroke-miterlimit="2" stroke-linecap="round"/>
<path d="M565.987 478.405C554.438 435.231 561.891 455.495 531.448 387.26C487.44 319.305 505.351 343.274 452.245 283.399C354.723 201.175 319.96 184.685 196.677 146.47C57.9297 121.65 4.6631 117.059 -202.066 165.919" stroke="#5A554F" stroke-width="2" stroke-miterlimit="2" stroke-linecap="round"/>
<path d="M-166.148 -67.4686C-1.75661 -64.6595 21.1341 -57.1056 134.621 -20.8233C259.048 34.6733 295.316 56.2225 403.939 154.64C498.483 260.892 516.129 293.458 558.127 400.115C576.677 475.281 572.748 454.339 576.103 488.02" stroke="#5A554F" stroke-width="2" stroke-miterlimit="2" stroke-linecap="round"/>
<path d="M694.543 530.786C695.782 524.266 732.366 528.017 739.196 528.529L736.943 497.588C760.063 502.559 751.381 499.976 774.843 508.496L770.87 464.763C709.771 442.72 655.072 453.05 608.141 507.79" stroke="#5A554F" stroke-width="2" stroke-miterlimit="2" stroke-linecap="round"/>
<path d="M589.367 497.815L589.933 486.761" stroke="#5A554F" stroke-width="2" stroke-miterlimit="2" stroke-linecap="round"/>
<path d="M589.932 486.761L586.672 496.121" stroke="#5A554F" stroke-width="2" stroke-miterlimit="2" stroke-linecap="round"/>
<path d="M620.363 -722.265C672.537 -375.819 714.784 304.571 695.021 528.281L685.931 530.138" stroke="#5A554F" stroke-width="2" stroke-miterlimit="2" stroke-linecap="round"/>
<path d="M596.77 501.747L598.318 469.813" stroke="#5A554F" stroke-width="2" stroke-miterlimit="2" stroke-linecap="round"/>
<path d="M598.317 469.813L589.93 486.759" stroke="#5A554F" stroke-width="2" stroke-miterlimit="2" stroke-linecap="round"/>
<path d="M589.929 486.762C580.615 382.277 573.374 347.878 515.983 217.491C442.154 83.6663 414.225 48.9731 317.18 -54.735C148.975 -206.77 74.4599 -234.227 -75.6055 -276.435" stroke="#5A554F" stroke-width="2" stroke-miterlimit="2" stroke-linecap="round"/>
<path d="M606.307 506.814C616.097 289.715 527.325 101.449 429.161 -72.4225C286.042 -293.324 207.299 -361.935 58.8788 -451.345" stroke="#5A554F" stroke-width="2" stroke-miterlimit="2" stroke-linecap="round"/>
<path d="M416.793 -676.996C610.179 -280.204 693.031 365.925 655.889 524.281" stroke="#5A554F" stroke-width="2" stroke-miterlimit="2" stroke-linecap="round"/>
<path d="M640.949 520.338L641.95 516.937" stroke="#5A554F" stroke-width="2" stroke-miterlimit="2" stroke-linecap="round"/>
<path d="M641.951 516.936L638.391 519.4" stroke="#5A554F" stroke-width="2" stroke-miterlimit="2" stroke-linecap="round"/>
<path d="M627.414 515.379C655.019 340.771 586.659 112.67 533.232 -48.3251C419.883 -347.396 341.625 -461.818 226.441 -586.059" stroke="#5A554F" stroke-width="2" stroke-miterlimit="2" stroke-linecap="round"/>
<path d="M-2.80894 754.063C78.4248 663.595 47.4575 696.697 132.073 609.19C53.3882 500.282 79.3827 541.308 20.6114 429.718C-21.4226 312.734 -8.97354 357.976 -35.2735 232.923C100.241 206.399 141.836 203.402 277.42 228.057C268.864 157.534 270.111 184.487 270.981 110.664" stroke="#5A554F" stroke-width="2" stroke-miterlimit="2" stroke-linecap="round"/>
<path d="M270.98 110.662C351.737 158.203 322.565 138.325 398.853 196.368C399.547 273.731 404.987 294.902 433.643 361.9C491.33 391.4 471.355 377.884 521.562 419.585" stroke="#5A554F" stroke-width="2" stroke-miterlimit="2" stroke-linecap="round"/>
<path d="M521.562 419.588C501.034 372.67 497.092 357.865 495.777 303.402C501.065 252.767 504.834 238.592 529.63 191.659" stroke="#5A554F" stroke-width="2" stroke-miterlimit="2" stroke-linecap="round"/>
<path d="M529.629 191.658C582.962 329.051 589.682 364.291 598.316 469.813" stroke="#5A554F" stroke-width="2" stroke-miterlimit="2" stroke-linecap="round"/>
<path d="M598.32 469.813C617.244 441.283 624.217 434.943 649.578 417.65" stroke="#5A554F" stroke-width="2" stroke-miterlimit="2" stroke-linecap="round"/>
<path d="M649.576 417.653C647.529 483.496 649.404 461.013 641.949 516.937" stroke="#5A554F" stroke-width="2" stroke-miterlimit="2" stroke-linecap="round"/>
<path d="M641.949 516.937C673.94 500.605 690.967 494.154 736.942 497.588C730.185 246.228 768.739 -349.504 828.117 -721.107" stroke="#5A554F" stroke-width="2" stroke-miterlimit="2" stroke-linecap="round"/>
<path d="M-196.582 287.597C-100.047 251.847 -137.082 264.251 -35.2724 232.924C-43.8021 113.222 -43.9736 158.6 -36.2266 34.9609C-13.7544 -79.0973 -25.3758 -36.6278 12.8759 -150.575C135.864 -109.618 172.185 -92.0509 294.825 -2.23033C322.977 -68.3453 311.452 -44.9559 345.805 -103.583" stroke="#5A554F" stroke-width="2" stroke-miterlimit="2" stroke-linecap="round"/>
<path d="M345.805 -103.587C411.039 -19.9665 387.353 -52.9755 449.593 39.6683C425.614 82.8829 433.591 65.689 414.277 114.191C505.998 233.016 522.627 267.721 562.869 378.728" stroke="#5A554F" stroke-width="2" stroke-miterlimit="2" stroke-linecap="round"/>
<path d="M562.871 378.728C582.592 323.705 602.448 304.479 639.589 279.726C625.443 182.914 631.993 221.456 611.639 112.656" stroke="#5A554F" stroke-width="2" stroke-miterlimit="2" stroke-linecap="round"/>
<path d="M611.639 112.66C571.556 138.581 560.21 148.241 529.633 191.661" stroke="#5A554F" stroke-width="2" stroke-miterlimit="2" stroke-linecap="round"/>
<path d="M529.631 191.658C483.537 95.6702 501.714 130.585 449.594 39.6699C480.111 -1.83678 468.222 12.6009 501.868 -22.7642C597.592 -100.782 678.469 -121.446 800.076 -97.6819C864.82 -76.3538 882.819 -67.4568 939.429 -20.3166C986.294 29.9654 985.841 32.9724 1010.73 78.928" stroke="#5A554F" stroke-width="2" stroke-miterlimit="2" stroke-linecap="round"/>
<path d="M1010.73 78.9294C1103.71 -35.4946 1134.14 -66.4248 1255.01 -155.698C1369.08 -224.321 1393.44 -233.457 1519.81 -267.513" stroke="#5A554F" stroke-width="2" stroke-miterlimit="2" stroke-linecap="round"/>
<path d="M-13.1798 -368.601C101.528 -319.207 123.57 -307.172 227.21 -224.875C180.27 -149.018 196.164 -179.37 156.964 -93.3482C130.134 -6.26292 137.959 -40.4291 121.726 54.8698C118.158 152.705 117.365 116.882 126.532 210.936C149.639 308.443 138.994 273.242 174.12 364.001C224.255 454.165 203.939 422.357 263.894 501.823C338.697 576.457 309.739 550.917 391.103 611.977C445.541 550.275 425.557 570.303 478.544 522.978C418.034 478.609 439.633 497.159 383.777 442.918C446.925 429.928 424.309 431.788 483.035 433.27C531.108 448.403 514.513 439.859 556.201 469.108" stroke="#5A554F" stroke-width="2" stroke-miterlimit="2" stroke-linecap="round"/>
<path d="M139.176 -524.01C193.105 -480.306 172.147 -498.461 230.342 -445.572C355.285 -536.785 394.08 -557.074 548.486 -601.589C575.908 -492.031 584.471 -453.111 613.433 -289.018C681.432 -301.101 656.467 -298.011 722.136 -301.614L719.953 84.6892C668.855 87.7094 655.416 91.7575 611.636 112.661C576.856 -42.1614 564.499 -88.4892 510.579 -250.514C453.718 -216.308 474.536 -230.896 419.472 -187.747C513.664 -10.7363 560.039 96.5788 606.191 305.271C612.875 350.294 628.991 437.242 615.77 511.116" stroke="#5A554F" stroke-width="2" stroke-miterlimit="2" stroke-linecap="round"/>
<path d="M930.814 -703.108C911.992 -644.674 919.351 -668.613 898.883 -599.634C1052.8 -553.401 1091.35 -532.742 1215.52 -440.063C1126.62 -345.797 1101.43 -310.024 1023.7 -184.371C1070.46 -136.276 1053.89 -155.934 1096.55 -99.3858C1004.78 15.5283 978.692 53.4781 909.235 193.782" stroke="#5A554F" stroke-width="2" stroke-miterlimit="2" stroke-linecap="round"/>
<path d="M909.237 193.782C879.048 149.989 867.859 140.263 827.996 113.869" stroke="#5A554F" stroke-width="2" stroke-miterlimit="2" stroke-linecap="round"/>
<path d="M827.997 113.871C806.336 222.429 813.35 183.972 798.023 280.617C766.096 264.485 756.308 261.349 718.908 258.65L718.02 399.048C750.411 401.435 758.912 404.278 786.274 418.418C786.512 431.84 786.25 495.161 793.633 521.672" stroke="#5A554F" stroke-width="2" stroke-miterlimit="2" stroke-linecap="round"/>
<path d="M1307.39 -517.472C1253.08 -474.376 1274.23 -492.328 1215.52 -440.06C1294.74 -364.7 1266.31 -395.712 1340 -306.325C1399.91 -212.111 1379.48 -249.906 1430.18 -142.647C1306.7 -103.04 1270.22 -85.8771 1146.57 2.53452C1164.59 69.2426 1159.57 43.2004 1169.34 115.692C1056.32 180.451 1024.74 204.372 942.004 305.901" stroke="#5A554F" stroke-width="2" stroke-miterlimit="2" stroke-linecap="round"/>
<path d="M942.008 305.901C937.213 255.205 933.575 240.993 909.242 193.785" stroke="#5A554F" stroke-width="2" stroke-miterlimit="2" stroke-linecap="round"/>
<path d="M909.236 193.783C873.166 283.422 884.927 249.815 857.016 340.508" stroke="#5A554F" stroke-width="2" stroke-miterlimit="2" stroke-linecap="round"/>
<path d="M857.019 340.508C835.274 307.812 827.141 300.475 798.023 280.615" stroke="#5A554F" stroke-width="2" stroke-miterlimit="2" stroke-linecap="round"/>
<path d="M798.023 280.616C788.206 368.482 790.77 337.092 786.273 418.417C811.477 435.996 818.371 442.409 837.027 471.15L838.173 503.7" stroke="#5A554F" stroke-width="2" stroke-miterlimit="2" stroke-linecap="round"/>
<path d="M193.551 937.065C279.58 775.774 300.777 734.462 391.108 611.975C527.671 686.995 569.982 697.612 717.433 708.959C864.714 699.279 907.559 689.033 1044.66 615.63C1134.09 739.341 1154.98 781.159 1239.14 942.913" stroke="#5A554F" stroke-width="2" stroke-miterlimit="2" stroke-linecap="round"/>
<path d="M1570.31 -166.21C1482.95 -154.491 1515.1 -159.759 1430.18 -142.65C1465.63 -33.5935 1455.08 -76.4838 1477.52 43.4246C1484.1 167.181 1484.35 121.737 1474.69 241.368C1447.21 366.117 1460.09 320.989 1416.94 437.527C1357.12 548.434 1383.52 507.701 1303.78 615.743C1387.54 704.187 1356.9 670.746 1437.23 762.117" stroke="#5A554F" stroke-width="2" stroke-miterlimit="2" stroke-linecap="round"/>
<path d="M1571.05 539.613C1397.71 418.875 1312.76 364.114 1122.71 346.264C1075.67 425.519 1059.75 452.596 957.858 525.658C1010.53 573.563 990.707 553.329 1044.66 615.631C1126.6 555.487 1097.4 580.707 1172.91 506.908C1050.82 435.062 1025.61 434.903 953.898 435.903C905.446 450.497 922.217 442.137 879.992 470.919" stroke="#5A554F" stroke-width="2" stroke-miterlimit="2" stroke-linecap="round"/>
<path d="M1632.7 57.1408C1435.77 33.495 1357.97 35.024 1169.34 115.691C1169.51 189.48 1171.01 162.547 1161.78 233.005C1037.56 272.53 1010.35 292.062 936.148 365.408" stroke="#5A554F" stroke-width="2" stroke-miterlimit="2" stroke-linecap="round"/>
<path d="M936.148 365.406C941.969 329.85 940.741 343.529 942.005 305.898" stroke="#5A554F" stroke-width="2" stroke-miterlimit="2" stroke-linecap="round"/>
<path d="M942.007 305.901C899.174 375.615 913.106 348.469 880.137 423.85" stroke="#5A554F" stroke-width="2" stroke-miterlimit="2" stroke-linecap="round"/>
<path d="M880.132 423.85C876.995 386.18 874.442 375.674 857.016 340.511" stroke="#5A554F" stroke-width="2" stroke-miterlimit="2" stroke-linecap="round"/>
<path d="M857.018 340.508C840.164 422.064 844.518 392.217 837.027 471.15C846.892 491.601 844.387 485.628 848.573 498.072" stroke="#5A554F" stroke-width="2" stroke-miterlimit="2" stroke-linecap="round"/>
<path d="M852.52 495.286C864.805 381.978 884.582 342.093 932.687 247.407C1011.61 124.959 1041.31 93.8724 1146.57 2.53221C1119.05 -63.8988 1130.34 -40.3867 1096.55 -99.3853C1231.46 -245.007 1293.11 -291.346 1458.26 -360.372" stroke="#5A554F" stroke-width="2" stroke-miterlimit="2" stroke-linecap="round"/>
<path d="M-191.578 46.936C5.36383 25.5254 83.5084 27.9266 270.98 110.666C281.434 38.2847 276.174 64.267 294.824 -2.2307" stroke="#5A554F" stroke-width="2" stroke-miterlimit="2" stroke-linecap="round"/>
<path d="M294.828 -2.23268C370.099 64.6326 342.806 37.7113 414.28 114.193C401.868 162.75 405.261 143.817 398.856 196.37C496.202 291.278 513.749 321.703 556.088 422.033C557.008 449.849 556.114 439.734 560.328 465.991" stroke="#5A554F" stroke-width="2" stroke-miterlimit="2" stroke-linecap="round"/>
<path d="M560.327 465.991C530.436 401.688 544.334 425.239 501.066 362.971C428.029 288.922 401.135 269.017 277.422 228.056" stroke="#5A554F" stroke-width="2" stroke-miterlimit="2" stroke-linecap="round"/>
<path d="M277.421 228.058C296.316 300.607 287.79 274.464 315.412 341.747C125.011 357.517 38.5572 412.294 -134.508 530.071" stroke="#5A554F" stroke-width="2" stroke-miterlimit="2" stroke-linecap="round"/>
<path fill-rule="evenodd" clip-rule="evenodd" d="M886.114 491.153C836.888 516.675 855.34 508.47 805.422 526.167C827.644 548.275 819.081 537.264 842.983 576.016C914.169 550.532 887.904 562.329 957.861 525.655C912.177 496.735 928.578 504.28 886.114 491.153Z" stroke="#5A554F" stroke-width="2" stroke-miterlimit="2" stroke-linecap="round"/>
<path d="M319.379 -637.159C390.961 -532.981 426.174 -476.979 510.58 -250.518C573.955 -278.738 550.394 -269.709 613.435 -289.02C643.349 -100.109 705.172 339.374 674.002 528.198" stroke="#5A554F" stroke-width="2" stroke-miterlimit="2" stroke-linecap="round"/>
<path d="M715.58 1101.1L717.872 592.895C642.086 587.157 670.736 591.613 592.934 574.617C617.019 536.129 608.428 547.051 630.637 525.189L645.658 522.061" stroke="#5A554F" stroke-width="2" stroke-miterlimit="2" stroke-linecap="round"/>
<path d="M724.264 -727.51L722.137 -301.613C787.776 -297.271 762.853 -300.634 830.718 -287.801C798.642 -98.7592 731.917 339.171 760.283 529.008" stroke="#5A554F" stroke-width="2" stroke-miterlimit="2" stroke-linecap="round"/>
<path d="M1128.27 -632.639C1032.05 -495.444 998.938 -418.844 933.191 -248.154C989.753 -213.299 969.082 -228.111 1023.7 -184.371C948.781 -47.31 928.682 -4.59499 873.492 148.371C844.543 245.089 800.35 399.6 818.981 512.697" stroke="#5A554F" stroke-width="2" stroke-miterlimit="2" stroke-linecap="round"/>
<rect width="1440" height="619.997" fill="url(#paint0_radial_2880_708178)" style="mix-blend-mode:luminosity"/>
</g>
<defs>
<radialGradient id="paint0_radial_2880_708178" cx="0" cy="0" r="1" gradientUnits="userSpaceOnUse" gradientTransform="translate(720 309.999) rotate(179.961) scale(720 309.999)">
<stop offset="0.00118811" stop-color="#1F1F23" stop-opacity="0"/>
<stop offset="1" stop-color="#1F1F23"/>
</radialGradient>
<clipPath id="clip0_2880_708178">
<rect width="1440" height="617.14" fill="white"/>
</clipPath>
</defs>
</svg>
