<svg width="100%" height="100%" viewBox="0 0 1441 618" fill="none" xmlns="http://www.w3.org/2000/svg">
<g clip-path="url(#clip0_2750_853027)">
<rect width="1440" height="617.143" transform="translate(0.0234375)" fill="#F8F7F7"/>
<path d="M560.352 465.995L563.227 475.761" stroke="#D4D0CC" stroke-width="2" stroke-miterlimit="2" stroke-linecap="round"/>
<path d="M552.906 460.305L560.98 473.627" stroke="#D4D0CC" stroke-width="2" stroke-miterlimit="2" stroke-linecap="round"/>
<path d="M537.254 445.483C551.329 463.009 561.993 478.298 588.071 497.114" stroke="#D4D0CC" stroke-width="2" stroke-miterlimit="2" stroke-linecap="round"/>
<path d="M579.09 492.343C679.028 545.445 756.618 545.916 857.138 493.899" stroke="#D4D0CC" stroke-width="2" stroke-miterlimit="2" stroke-linecap="round"/>
<path d="M847.32 498.97C874.85 479.552 884.738 465.15 899.207 447.506" stroke="#D4D0CC" stroke-width="2" stroke-miterlimit="2" stroke-linecap="round"/>
<path d="M874.707 475.854L883.212 462.152" stroke="#D4D0CC" stroke-width="2" stroke-miterlimit="2" stroke-linecap="round"/>
<path d="M872.355 478.049L875.493 467.758" stroke="#D4D0CC" stroke-width="2" stroke-miterlimit="2" stroke-linecap="round"/>
<path fill-rule="evenodd" clip-rule="evenodd" d="M1571.07 539.615C1620.19 395.567 1605.89 451.142 1635.44 297.845C1643.41 151.912 1644.51 207.11 1632.72 57.1406C1602.08 -87.2771 1616.01 -35.7756 1570.33 -166.209C1506.74 -293.766 1532.15 -248.931 1458.28 -360.373C1336.66 -502.947 1296.38 -537.848 1128.29 -632.64C962.411 -702.597 912.79 -715.885 724.285 -727.515C535.63 -717.996 485.931 -705.269 319.398 -637.16C150.516 -544.313 110.128 -510.176 -13.1591 -368.603C-88.0714 -258 -62.2439 -302.557 -127.045 -175.703C-173.962 -45.7833 -159.533 -97.1605 -191.558 46.9362C-204.759 196.686 -203.142 141.6 -196.563 287.598C-168.455 441.235 -182.225 385.514 -134.49 530.073C-65.7697 668.903 -96.5197 617.686 -2.78883 754.068C111.505 877.501 66.8522 835.088 193.566 937.07C342.656 1024.36 286.24 996.088 440.532 1057.89C611.405 1098.08 548.328 1087.54 715.6 1101.11C882.968 1089.41 819.917 1099.22 991.071 1060.97C1145.94 1000.9 1089.26 1028.53 1239.16 942.918C1366.84 842.36 1321.78 884.268 1437.25 762.123C1532.27 626.81 1501.03 677.678 1571.07 539.615L1571.07 539.615Z" stroke="#D4D0CC" stroke-width="2" stroke-miterlimit="2" stroke-linecap="round"/>
<path d="M859.117 490.368L862.051 464.374" stroke="#D4D0CC" stroke-width="2" stroke-miterlimit="2" stroke-linecap="round"/>
<path d="M862.051 464.369L863.649 484.32" stroke="#D4D0CC" stroke-width="2" stroke-miterlimit="2" stroke-linecap="round"/>
<path d="M863.652 484.323L880.16 423.848" stroke="#D4D0CC" stroke-width="2" stroke-miterlimit="2" stroke-linecap="round"/>
<path d="M880.16 423.851C878.967 451.65 879.957 441.557 875.496 467.759" stroke="#D4D0CC" stroke-width="2" stroke-miterlimit="2" stroke-linecap="round"/>
<path d="M875.496 467.759C906.258 403.798 892.052 427.179 936.173 365.41" stroke="#D4D0CC" stroke-width="2" stroke-miterlimit="2" stroke-linecap="round"/>
<path d="M936.172 365.408C921.906 412.888 919.795 414.256 899.207 447.509" stroke="#D4D0CC" stroke-width="2" stroke-miterlimit="2" stroke-linecap="round"/>
<path d="M899.207 447.512L936.53 419.96" stroke="#D4D0CC" stroke-width="2" stroke-miterlimit="2" stroke-linecap="round"/>
<path d="M936.529 419.956C898.789 466.108 895.664 466.707 857.137 493.897" stroke="#D4D0CC" stroke-width="2" stroke-miterlimit="2" stroke-linecap="round"/>
<path d="M857.137 493.897C893.648 490.446 878.965 496.229 921.965 465.794" stroke="#D4D0CC" stroke-width="2" stroke-miterlimit="2" stroke-linecap="round"/>
<path d="M921.964 465.794C879.895 474.295 894.47 468.027 857.84 491.556" stroke="#D4D0CC" stroke-width="2" stroke-miterlimit="2" stroke-linecap="round"/>
<path d="M869.387 480.806C881.756 436.889 873.991 457.223 905.349 389.352" stroke="#D4D0CC" stroke-width="2" stroke-miterlimit="2" stroke-linecap="round"/>
<path d="M905.349 389.352C898.419 430.62 896.785 432.065 883.211 462.151" stroke="#D4D0CC" stroke-width="2" stroke-miterlimit="2" stroke-linecap="round"/>
<path d="M883.211 462.151C921.512 413.716 904.657 430.259 955.518 389.128L970.189 356.168" stroke="#D4D0CC" stroke-width="2" stroke-miterlimit="2" stroke-linecap="round"/>
<path d="M970.19 356.167C916.431 404.127 934.263 385.321 893.72 438.874L878.488 469.765" stroke="#D4D0CC" stroke-width="2" stroke-miterlimit="2" stroke-linecap="round"/>
<path d="M845.71 499.813C845.125 484.326 844.231 498.276 851.614 426.133" stroke="#D4D0CC" stroke-width="2" stroke-miterlimit="2" stroke-linecap="round"/>
<path d="M851.617 426.129C859.299 448.611 856.973 439.808 862.054 464.37" stroke="#D4D0CC" stroke-width="2" stroke-miterlimit="2" stroke-linecap="round"/>
<path d="M862.051 464.37C882.543 385.717 873.168 414.528 904.121 338.801" stroke="#D4D0CC" stroke-width="2" stroke-miterlimit="2" stroke-linecap="round"/>
<path d="M904.121 338.801C906.781 369.01 906.59 357.402 905.349 389.35" stroke="#D4D0CC" stroke-width="2" stroke-miterlimit="2" stroke-linecap="round"/>
<path d="M905.348 389.35C950.256 321.91 932.019 345.671 985.957 286.382" stroke="#D4D0CC" stroke-width="2" stroke-miterlimit="2" stroke-linecap="round"/>
<path d="M985.96 286.384C978.935 330.875 982.418 314.816 970.191 356.168" stroke="#D4D0CC" stroke-width="2" stroke-miterlimit="2" stroke-linecap="round"/>
<path d="M970.188 356.168C1034.6 317.687 1009.53 330.035 1080.31 303.528" stroke="#D4D0CC" stroke-width="2" stroke-miterlimit="2" stroke-linecap="round"/>
<path d="M1080.31 303.529C1049.65 374.556 1039.29 398.93 962.676 471.105C884.226 526.915 858.736 536.396 771.06 554.428C674.54 560.616 648.1 555.469 563.279 524.235C468.407 473.516 452.392 452.329 404.202 391.267C360.311 316.806 350.351 292.235 338.255 200.336C338.327 110.509 343.754 86.9975 376.156 8.26454C420.192 -68.9915 437.566 -86.7998 499.815 -136.552C569.329 -179.155 590.856 -188.13 674.68 -203.28C810.666 -210.897 905.804 -181.574 1012.8 -69.1573C1061.04 -3.67758 1073.09 18.1351 1095.49 105.255C1102.77 164.413 1101.67 141.575 1101.11 204.603C1092.22 267.503 1096.82 244.723 1080.31 303.529C1159.37 288.117 1127.6 291.453 1217.85 287.725C1184.24 369.556 1198.3 340.423 1155.43 414.067C1088.62 499.236 1065.83 528.73 934.621 598.164C815.437 641.189 778.412 647.969 643.381 637.672C521.624 610.872 485.632 596.968 377.698 517C315.695 456.049 337.377 481.001 282.213 409.183C240.051 335.073 253.836 364.35 221.002 282.149C200.836 201.249 206.142 232.438 196.7 146.471C198.637 64.9546 195.61 95.7871 208.739 12.2248C232.362 -68.0992 222.183 -39.4983 254.051 -111.819C296.463 -182.228 279.706 -157.565 327.853 -218.57C411.153 -300.733 438.936 -317.467 537.147 -360.444C640.432 -391.564 671.456 -396.252 785.522 -388.809C897.549 -367.959 926.272 -356.15 1020.1 -299.362C1104.45 -233.092 1127.94 -209.514 1188.54 -106.591C1219.72 -33.9246 1209.82 -62.6255 1232.68 17.9524C1244.44 97.73 1242.22 66.8165 1243.44 152.327C1233.18 238.173 1238.78 207.052 1217.85 287.725C1313.63 296.901 1278.13 291.473 1372.83 312.71M1372.83 312.71C1331.28 420.725 1348.88 382.182 1294.59 480.052C1222.84 575.105 1251.2 542.024 1169.67 623.091C1072.04 695.853 1109.41 671.536 1005.91 727.714C846.892 786.496 797.737 795.495 617.915 781.505C501.742 755.373 545.011 768.865 428.895 724.487C325.924 667.148 363.066 691.881 266.136 618.037C185.379 536.061 213.426 569.459 142.58 473.608C89.2254 375.138 106.462 413.888 65.9395 305.4C42.1862 199.296 48.0955 240.054 38.6354 128.054C43.8586 22.6187 38.9242 62.3161 58.6648 -45.1128C91.7158 -147.728 77.7015 -111.277 120.913 -203.114C202.61 -331.805 233.167 -360.814 343.387 -442.544C464.287 -511.607 501.064 -525.801 643.67 -549.967C788.541 -557.553 827.761 -551.327 958.788 -511.476C1092.85 -452.91 1125.41 -429.757 1226.45 -331.937C1288.99 -254.561 1267.1 -285.919 1322.68 -196.391C1365.02 -104.085 1351.36 -140.668 1383.42 -37.7034C1401.28 64.9509 1397.38 25.0007 1401.81 135.68C1391.28 247.571 1397.58 206.889 1372.83 312.71ZM1372.83 312.71C1473.58 347.872 1436.89 333.217 1532.51 377.686C1484.03 514.005 1504.86 465.219 1439.79 589.522C1356.42 705.294 1392.06 663.485 1286.45 772.809C1164.57 866.942 1211.29 835.449 1081.6 908.198C934.574 964.257 989.454 947.306 842.025 979.713C690.884 990.094 748.761 990.963 590.387 978.306C443.308 944.259 498.008 961.823 351.509 904.115C222.501 829.913 268.912 861.923 147.955 766.442C43.374 655.936 78.6165 698.136 -3.65187 581.448C-67.5305 456.424 -47.1687 505.437 -94.3544 368.587C-120.491 235.65 -114.465 286.531 -122.563 147.134C-112.72 16.83 -120.054 65.6809 -92.3825 -66.2087C-48.7369 -191.393 -66.9712 -147.054 -11.5029 -258.413C59.6782 -365.609 31.9028 -328.227 110.662 -420.168C236.25 -535.415 276.607 -562.611 439.709 -630.027C598.617 -675.33 645.891 -682.069 820.174 -671.227C992.018 -640.822 1036.43 -623.515 1182.59 -540.151C1278.09 -469.835 1243.28 -499.262 1335 -413.309C1412.88 -320.498 1385.45 -358.202 1455.62 -250.208C1510.03 -138.227 1492.21 -182.804 1534.67 -57.1076C1559.86 68.9169 1553.8 19.7978 1562.82 156.562C1553.41 295.887 1559.92 245.026 1532.51 377.686L1611.94 419.781" stroke="#D4D0CC" stroke-width="2" stroke-miterlimit="2" stroke-linecap="round"/>
<path d="M828.532 508.7C826.397 441.607 825.741 468.087 832.301 392.169" stroke="#D4D0CC" stroke-width="2" stroke-miterlimit="2" stroke-linecap="round"/>
<path d="M832.305 392.169C845.139 411.734 840.761 403.887 851.616 426.131" stroke="#D4D0CC" stroke-width="2" stroke-miterlimit="2" stroke-linecap="round"/>
<path d="M851.617 426.131C870.547 342.738 861.887 373.77 890.407 290.659" stroke="#D4D0CC" stroke-width="2" stroke-miterlimit="2" stroke-linecap="round"/>
<path d="M890.406 290.658C900.438 318.942 897.384 307.857 904.123 338.801" stroke="#D4D0CC" stroke-width="2" stroke-miterlimit="2" stroke-linecap="round"/>
<path d="M904.121 338.801C946.25 263.77 927.798 291.998 983.299 215.625" stroke="#D4D0CC" stroke-width="2" stroke-miterlimit="2" stroke-linecap="round"/>
<path d="M983.301 215.628C987.631 257.842 987.165 241.599 985.961 286.385" stroke="#D4D0CC" stroke-width="2" stroke-miterlimit="2" stroke-linecap="round"/>
<path d="M985.961 286.385C1084.59 205.274 1119.61 189.154 1243.44 152.327C1382.96 128.996 1436.04 125.095 1642.09 176.234" stroke="#D4D0CC" stroke-width="2" stroke-miterlimit="2" stroke-linecap="round"/>
<path d="M827.044 509.473C813.615 493.479 819.148 499.323 802.521 484.026C800.922 414.548 800.397 441.694 805.514 364.641" stroke="#D4D0CC" stroke-width="2" stroke-miterlimit="2" stroke-linecap="round"/>
<path d="M805.512 364.641C822.581 380.048 816.474 373.673 832.302 392.168" stroke="#D4D0CC" stroke-width="2" stroke-miterlimit="2" stroke-linecap="round"/>
<path d="M832.305 392.168C848.479 304.64 841.095 337.584 865.381 248.037" stroke="#D4D0CC" stroke-width="2" stroke-miterlimit="2" stroke-linecap="round"/>
<path d="M865.379 248.038C881.971 272.571 876.305 262.743 890.404 290.66" stroke="#D4D0CC" stroke-width="2" stroke-miterlimit="2" stroke-linecap="round"/>
<path d="M890.406 290.66C929.112 205.578 912.199 238.198 963.012 148.674" stroke="#D4D0CC" stroke-width="2" stroke-miterlimit="2" stroke-linecap="round"/>
<path d="M963.008 148.674C977.715 187.94 973.182 172.519 983.297 215.626" stroke="#D4D0CC" stroke-width="2" stroke-miterlimit="2" stroke-linecap="round"/>
<path d="M983.301 215.626L1035.68 158.173" stroke="#D4D0CC" stroke-width="2" stroke-miterlimit="2" stroke-linecap="round"/>
<path d="M1035.68 158.174C1044.19 234.117 1044.16 273.69 1004 365.094L955.52 389.127L936.531 419.958" stroke="#D4D0CC" stroke-width="2" stroke-miterlimit="2" stroke-linecap="round"/>
<path d="M936.531 419.957C993.034 397.471 971.015 403.564 1033.35 394.784C1103.34 399.388 1075.15 394.62 1155.43 414.065C1289.53 467.601 1338.66 499.171 1512.71 654.654" stroke="#D4D0CC" stroke-width="2" stroke-miterlimit="2" stroke-linecap="round"/>
<path d="M1635.45 297.847C1444.13 224.571 1359.42 199.398 1161.8 233.008C1142.21 305.332 1150.99 279.29 1122.74 346.267C1047.46 351.445 1074.53 346.816 1003.99 365.097C966.587 426.36 962.973 427.436 921.965 465.798C1096.01 488.497 1234.82 697.455 1345.56 859.125" stroke="#D4D0CC" stroke-width="2" stroke-miterlimit="2" stroke-linecap="round"/>
<path d="M824.707 510.679C852.833 511.622 841.835 508.516 873.003 525.967C983.861 634.919 1057.47 843.893 1120.13 1010.91" stroke="#D4D0CC" stroke-width="2" stroke-miterlimit="2" stroke-linecap="round"/>
<path d="M754.43 530.21C764.71 536.659 755.101 536.489 805.441 526.171" stroke="#D4D0CC" stroke-width="2" stroke-miterlimit="2" stroke-linecap="round"/>
<path d="M805.442 526.171L790.258 522.874" stroke="#D4D0CC" stroke-width="2" stroke-miterlimit="2" stroke-linecap="round"/>
<path fill-rule="evenodd" clip-rule="evenodd" d="M771.061 554.424L781.094 588.823L717.898 592.897L717.995 537.865L762.142 535.045L771.061 554.424Z" stroke="#D4D0CC" stroke-width="2" stroke-miterlimit="2" stroke-linecap="round"/>
<path d="M739.671 531.154C739.06 527.597 737.331 528.124 748.696 530.578" stroke="#D4D0CC" stroke-width="2" stroke-miterlimit="2" stroke-linecap="round"/>
<path d="M778.538 525.276L774.867 508.499" stroke="#D4D0CC" stroke-width="2" stroke-miterlimit="2" stroke-linecap="round"/>
<path d="M774.863 508.498C795.48 519.307 791.221 516.829 796.589 520.631" stroke="#D4D0CC" stroke-width="2" stroke-miterlimit="2" stroke-linecap="round"/>
<path d="M807.245 516.864L802.522 484.028C783.322 470.521 790.546 475.009 770.895 464.767C770.069 395.95 769.675 423.098 773.06 345.243" stroke="#D4D0CC" stroke-width="2" stroke-miterlimit="2" stroke-linecap="round"/>
<path d="M773.059 345.239C793.229 355.555 785.81 351.036 805.514 364.64" stroke="#D4D0CC" stroke-width="2" stroke-miterlimit="2" stroke-linecap="round"/>
<path d="M805.512 364.64C817.38 277.997 811.38 312.875 830.896 213.58" stroke="#D4D0CC" stroke-width="2" stroke-miterlimit="2" stroke-linecap="round"/>
<path d="M830.895 213.582C852.853 232.864 844.992 224.877 865.377 248.038" stroke="#D4D0CC" stroke-width="2" stroke-miterlimit="2" stroke-linecap="round"/>
<path d="M865.379 248.036C898.264 154.201 883.927 190.617 926.927 89.7519" stroke="#D4D0CC" stroke-width="2" stroke-miterlimit="2" stroke-linecap="round"/>
<path d="M926.926 89.7549C950.758 123.618 942.587 110.014 963.008 148.675" stroke="#D4D0CC" stroke-width="2" stroke-miterlimit="2" stroke-linecap="round"/>
<path d="M963.008 148.675L1010.76 78.9301" stroke="#D4D0CC" stroke-width="2" stroke-miterlimit="2" stroke-linecap="round"/>
<path d="M1010.76 78.9279C1028.72 125.356 1023.15 107.097 1035.68 158.172" stroke="#D4D0CC" stroke-width="2" stroke-miterlimit="2" stroke-linecap="round"/>
<path d="M1035.67 158.172C1145.42 61.0788 1182.14 39.8078 1307.17 -14.2676C1321.78 76.7415 1318.8 41.4146 1321.43 139.281C1310.88 237.851 1316.89 202.075 1293.91 295.01C1244.27 419.659 1237.84 422.656 1172.93 506.907C1250.56 565.264 1220.45 539.923 1303.8 615.746L1227.85 692.75C1083.98 801.814 1074.25 800.898 938.965 851.653C905.841 735.502 891.658 680.961 843.005 576.02L781.094 588.824C816.178 747.015 835.527 924.19 855.087 1091.36" stroke="#D4D0CC" stroke-width="2" stroke-miterlimit="2" stroke-linecap="round"/>
<path d="M576.223 1089.8C584.42 1025.26 637.995 557.098 681.434 529.803" stroke="#D4D0CC" stroke-width="2" stroke-miterlimit="2" stroke-linecap="round"/>
<path d="M311.969 1006.39C377.865 835.95 432.72 686.262 533.839 552.723C569.19 518.516 556.563 527.926 589.211 509.985L611.352 509.486" stroke="#D4D0CC" stroke-width="2" stroke-miterlimit="2" stroke-linecap="round"/>
<path d="M1387.02 -443.916C1220.76 -346.118 1086.47 -228.281 926.926 89.7554" stroke="#D4D0CC" stroke-width="2" stroke-miterlimit="2" stroke-linecap="round"/>
<path d="M926.927 89.7552C850.696 6.26337 782.412 -14.0117 687.024 -8.47124C594.461 8.8421 531.523 44.305 476.541 145.955C453.759 204.974 451.209 222.308 452.267 283.4C461.931 348.708 469.263 365.785 500.403 417.518C540.102 467.086 543.595 467.079 578.197 489.993" stroke="#D4D0CC" stroke-width="2" stroke-miterlimit="2" stroke-linecap="round"/>
<path d="M991.077 1060.97C958.036 924.659 970.131 973.403 938.963 851.655C800.659 881.579 851.627 873.899 716.669 883.017C581.76 872.387 632.633 880.626 494.69 849.17C529.276 732.062 544.489 677.116 592.959 574.623C522.008 548.342 548.171 560.438 478.57 522.98C524.339 494.57 507.961 501.927 550.313 489.28L579.089 492.344" stroke="#D4D0CC" stroke-width="2" stroke-miterlimit="2" stroke-linecap="round"/>
<path d="M579.09 492.342C541.859 465.471 556.492 472.489 514.718 463.517C463.62 469.629 483.321 464.827 428.253 486.081C278.943 577.394 200.414 691.524 87.9805 852.086" stroke="#D4D0CC" stroke-width="2" stroke-miterlimit="2" stroke-linecap="round"/>
<path d="M1220.75 -580.503C1104.08 -457.133 1024.71 -343.054 908.345 -46.2253C856.59 103.875 857.139 108.232 830.898 213.583" stroke="#D4D0CC" stroke-width="2" stroke-miterlimit="2" stroke-linecap="round"/>
<path d="M830.897 213.581C768.514 171.629 718.834 165.46 649.464 188.562C575.246 224.55 548.416 269.93 533.19 336.729C528.697 382.582 529.067 406.076 552.905 460.303" stroke="#D4D0CC" stroke-width="2" stroke-miterlimit="2" stroke-linecap="round"/>
<path d="M552.904 460.303L521.586 419.59" stroke="#D4D0CC" stroke-width="2" stroke-miterlimit="2" stroke-linecap="round"/>
<path d="M521.586 419.589L537.253 445.483" stroke="#D4D0CC" stroke-width="2" stroke-miterlimit="2" stroke-linecap="round"/>
<path d="M537.254 445.482C490.859 410.271 509.312 421.188 455.901 399.16C390.858 389.225 415.935 390.622 346.006 394.447C164.875 436.277 78.1633 509.919 -77.2188 645.759" stroke="#D4D0CC" stroke-width="2" stroke-miterlimit="2" stroke-linecap="round"/>
<path d="M440.536 1057.89C474.911 921.949 462.338 970.556 494.689 849.169C369.636 800.683 415.491 822.909 294.001 754.204C189.978 673.598 226.826 707.22 132.098 609.192C253.973 500.597 286.001 482.198 383.802 442.918C338.474 384.788 353.954 408.149 315.434 341.747C390.478 347.766 363.529 342.839 433.667 361.903C461.619 408.742 450.415 392.27 483.06 433.269C568.838 515.227 624.758 530.862 717.993 537.867C717.178 477.426 717.061 537.575 718.043 399.048C697.552 400.328 685.471 399.608 649.599 417.653" stroke="#D4D0CC" stroke-width="2" stroke-miterlimit="2" stroke-linecap="round"/>
<path d="M649.599 417.656C646.161 336.281 648.322 367.707 639.611 279.732C671.696 263.955 681.511 260.933 718.931 258.652L719.978 84.6892C771.038 88.2808 784.436 92.4758 828.021 113.872C864.627 -40.5886 877.51 -86.7545 933.213 -248.151C870.114 -277.077 893.6 -267.786 830.741 -287.801C861.467 -451.619 870.377 -490.241 898.908 -599.632C750.837 -626.1 707.041 -628.116 548.51 -601.589C529.596 -667.621 536.721 -643.873 517.519 -705.421" stroke="#D4D0CC" stroke-width="2" stroke-miterlimit="2" stroke-linecap="round"/>
<path d="M556.935 466.949C538.91 429.117 549.26 445.921 509.478 391.911C456.439 343.356 477.492 359.579 416.698 322.226C318.678 284.177 284.64 276.76 144.96 288.582C29.7724 313.094 6.8591 316.355 -174.203 409.788" stroke="#D4D0CC" stroke-width="2" stroke-miterlimit="2" stroke-linecap="round"/>
<path d="M1031.26 -673.564C890.093 -390.634 800.979 19.8828 773.056 345.24C662.682 306.147 581.04 380.045 571.816 482.692" stroke="#D4D0CC" stroke-width="2" stroke-miterlimit="2" stroke-linecap="round"/>
<path d="M571.817 482.692C553.771 413.014 552.929 423.658 562.892 378.732" stroke="#D4D0CC" stroke-width="2" stroke-miterlimit="2" stroke-linecap="round"/>
<path d="M562.895 378.73C580.83 456.22 576.609 430.378 582.58 493.152" stroke="#D4D0CC" stroke-width="2" stroke-miterlimit="2" stroke-linecap="round"/>
<path d="M566.01 478.407C554.462 435.233 561.914 455.497 531.472 387.261C487.464 319.307 505.375 343.276 452.268 283.4C354.747 201.176 319.984 184.686 196.7 146.471C57.9531 121.65 4.68654 117.059 -202.043 165.919" stroke="#D4D0CC" stroke-width="2" stroke-miterlimit="2" stroke-linecap="round"/>
<path d="M-166.125 -67.469C-1.73317 -64.6599 21.1575 -57.106 134.645 -20.8235C259.071 34.6734 295.339 56.2226 403.962 154.641C498.506 260.893 516.153 293.459 558.151 400.117C576.7 475.283 572.771 454.341 576.126 488.022" stroke="#D4D0CC" stroke-width="2" stroke-miterlimit="2" stroke-linecap="round"/>
<path d="M694.566 530.789C695.806 524.269 732.39 528.019 739.22 528.532L736.967 497.591C760.087 502.561 751.404 499.979 774.866 508.499L770.893 464.765C709.795 442.722 655.096 453.052 608.164 507.793" stroke="#D4D0CC" stroke-width="2" stroke-miterlimit="2" stroke-linecap="round"/>
<path d="M589.391 497.817L589.956 486.763" stroke="#D4D0CC" stroke-width="2" stroke-miterlimit="2" stroke-linecap="round"/>
<path d="M589.955 486.764L586.695 496.124" stroke="#D4D0CC" stroke-width="2" stroke-miterlimit="2" stroke-linecap="round"/>
<path d="M620.387 -722.268C672.561 -375.821 714.807 304.572 695.045 528.284L685.955 530.141" stroke="#D4D0CC" stroke-width="2" stroke-miterlimit="2" stroke-linecap="round"/>
<path d="M596.793 501.749L598.341 469.816" stroke="#D4D0CC" stroke-width="2" stroke-miterlimit="2" stroke-linecap="round"/>
<path d="M598.341 469.815L589.953 486.761" stroke="#D4D0CC" stroke-width="2" stroke-miterlimit="2" stroke-linecap="round"/>
<path d="M589.953 486.764C580.638 382.279 573.398 347.88 516.006 217.492C442.177 83.6664 414.248 48.973 317.204 -54.7356C148.998 -206.771 74.4834 -234.229 -75.5821 -276.436" stroke="#D4D0CC" stroke-width="2" stroke-miterlimit="2" stroke-linecap="round"/>
<path d="M606.331 506.816C616.12 289.716 527.349 101.449 429.184 -72.4229C286.066 -293.326 207.323 -361.937 58.9022 -451.348" stroke="#D4D0CC" stroke-width="2" stroke-miterlimit="2" stroke-linecap="round"/>
<path d="M416.816 -676.999C610.202 -280.206 693.054 365.927 655.913 524.283" stroke="#D4D0CC" stroke-width="2" stroke-miterlimit="2" stroke-linecap="round"/>
<path d="M640.973 520.341L641.973 516.939" stroke="#D4D0CC" stroke-width="2" stroke-miterlimit="2" stroke-linecap="round"/>
<path d="M641.974 516.939L638.414 519.403" stroke="#D4D0CC" stroke-width="2" stroke-miterlimit="2" stroke-linecap="round"/>
<path d="M627.438 515.381C655.043 340.773 586.683 112.67 533.255 -48.3255C419.906 -347.398 341.648 -461.82 226.465 -586.061" stroke="#D4D0CC" stroke-width="2" stroke-miterlimit="2" stroke-linecap="round"/>
<path d="M-2.78551 754.067C78.4483 663.598 47.481 696.701 132.096 609.193C53.4116 500.285 79.4061 541.311 20.6348 429.72C-21.3991 312.736 -8.9501 357.977 -35.2501 232.924C100.264 206.4 141.86 203.403 277.443 228.058C268.887 157.535 270.135 184.488 271.005 110.665" stroke="#D4D0CC" stroke-width="2" stroke-miterlimit="2" stroke-linecap="round"/>
<path d="M271.004 110.662C351.761 158.204 322.588 138.326 398.876 196.369C399.57 273.733 405.011 294.904 433.666 361.902C491.353 391.402 471.379 377.886 521.586 419.587" stroke="#D4D0CC" stroke-width="2" stroke-miterlimit="2" stroke-linecap="round"/>
<path d="M521.585 419.59C501.058 372.671 497.115 357.867 495.801 303.404C501.088 252.768 504.857 238.593 529.653 191.66" stroke="#D4D0CC" stroke-width="2" stroke-miterlimit="2" stroke-linecap="round"/>
<path d="M529.652 191.659C582.986 329.053 589.706 364.293 598.339 469.815" stroke="#D4D0CC" stroke-width="2" stroke-miterlimit="2" stroke-linecap="round"/>
<path d="M598.344 469.815C617.267 441.285 624.24 434.945 649.602 417.652" stroke="#D4D0CC" stroke-width="2" stroke-miterlimit="2" stroke-linecap="round"/>
<path d="M649.599 417.654C647.553 483.498 649.428 461.015 641.973 516.939" stroke="#D4D0CC" stroke-width="2" stroke-miterlimit="2" stroke-linecap="round"/>
<path d="M641.973 516.939C673.963 500.607 690.99 494.156 736.965 497.591C730.208 246.229 768.763 -349.506 828.14 -721.111" stroke="#D4D0CC" stroke-width="2" stroke-miterlimit="2" stroke-linecap="round"/>
<path d="M-196.557 287.598C-100.021 251.848 -137.056 264.253 -35.247 232.925C-43.7767 113.223 -43.9482 158.601 -36.2012 34.9612C-13.729 -79.0975 -25.3504 -36.6278 12.9013 -150.575C135.889 -109.618 172.211 -92.0512 294.85 -2.2302C323.002 -68.3455 311.478 -44.956 345.83 -103.583" stroke="#D4D0CC" stroke-width="2" stroke-miterlimit="2" stroke-linecap="round"/>
<path d="M345.828 -103.588C411.062 -19.9668 387.376 -52.976 449.617 39.6682C425.638 82.883 433.614 65.689 414.3 114.191C506.021 233.016 522.65 267.722 562.892 378.729" stroke="#D4D0CC" stroke-width="2" stroke-miterlimit="2" stroke-linecap="round"/>
<path d="M562.895 378.729C582.615 323.707 602.471 304.48 639.613 279.727C625.466 182.914 632.016 221.457 611.662 112.656" stroke="#D4D0CC" stroke-width="2" stroke-miterlimit="2" stroke-linecap="round"/>
<path d="M611.662 112.661C571.579 138.582 560.234 148.242 529.656 191.662" stroke="#D4D0CC" stroke-width="2" stroke-miterlimit="2" stroke-linecap="round"/>
<path d="M529.655 191.66C483.56 95.6709 501.737 130.586 449.617 39.6705C480.135 -1.83644 468.245 12.6013 501.891 -22.764C597.615 -100.782 678.493 -121.446 800.099 -97.6821C864.844 -76.3538 882.843 -67.4568 939.453 -20.3164C986.318 29.9658 985.864 32.9729 1010.76 78.9287" stroke="#D4D0CC" stroke-width="2" stroke-miterlimit="2" stroke-linecap="round"/>
<path d="M1010.76 78.9297C1103.74 -35.4949 1134.16 -66.4252 1255.03 -155.699C1369.11 -224.322 1393.47 -233.458 1519.83 -267.515" stroke="#D4D0CC" stroke-width="2" stroke-miterlimit="2" stroke-linecap="round"/>
<path d="M-13.1563 -368.602C101.551 -319.209 123.594 -307.173 227.233 -224.875C180.293 -149.018 196.187 -179.37 156.987 -93.3484C130.157 -6.26264 137.982 -40.429 121.75 54.8704C118.182 152.706 117.389 116.883 126.555 210.938C149.662 308.445 139.018 273.243 174.143 364.003C224.279 454.167 203.963 422.359 263.918 501.825C338.72 576.46 309.762 550.92 391.126 611.98C445.564 550.278 425.58 570.306 478.568 522.981C418.057 478.611 439.656 497.162 383.8 442.921C446.948 429.93 424.333 431.791 483.059 433.272C531.132 448.405 514.536 439.861 556.225 469.111" stroke="#D4D0CC" stroke-width="2" stroke-miterlimit="2" stroke-linecap="round"/>
<path d="M139.199 -524.013C193.129 -480.309 172.17 -498.463 230.365 -445.575C355.308 -536.788 394.104 -557.077 548.509 -601.592C575.931 -492.034 584.494 -453.113 613.457 -289.019C681.455 -301.102 656.49 -298.013 722.159 -301.615L719.977 84.6895C668.879 87.7096 655.439 91.7578 611.659 112.662C576.88 -42.1617 564.522 -88.4897 510.602 -250.515C453.742 -216.309 474.559 -230.898 419.495 -187.748C513.688 -10.7365 560.062 96.5791 606.214 305.272C612.898 350.295 629.014 437.244 615.793 511.119" stroke="#D4D0CC" stroke-width="2" stroke-miterlimit="2" stroke-linecap="round"/>
<path d="M930.837 -703.111C912.015 -644.676 919.374 -668.615 898.906 -599.636C1052.82 -553.404 1091.38 -532.745 1215.54 -440.065C1126.65 -345.798 1101.45 -310.025 1023.72 -184.372C1070.49 -136.277 1053.91 -155.934 1096.57 -99.3862C1004.8 15.5285 978.715 53.4784 909.259 193.783" stroke="#D4D0CC" stroke-width="2" stroke-miterlimit="2" stroke-linecap="round"/>
<path d="M909.261 193.783C879.071 149.99 867.883 140.264 828.02 113.87" stroke="#D4D0CC" stroke-width="2" stroke-miterlimit="2" stroke-linecap="round"/>
<path d="M828.021 113.871C806.36 222.429 813.374 183.973 798.046 280.618C766.12 264.486 756.332 261.35 718.932 258.651L718.043 399.05C750.434 401.437 758.936 404.279 786.297 418.42C786.536 431.842 786.273 495.163 793.657 521.674" stroke="#D4D0CC" stroke-width="2" stroke-miterlimit="2" stroke-linecap="round"/>
<path d="M1307.42 -517.474C1253.11 -474.379 1274.26 -492.33 1215.55 -440.062C1294.76 -364.701 1266.34 -395.714 1340.03 -306.326C1399.93 -212.112 1379.51 -249.907 1430.2 -142.647C1306.72 -103.04 1270.25 -85.8774 1146.59 2.5346C1164.61 69.243 1159.59 43.2007 1169.36 115.693C1056.34 180.452 1024.76 204.373 942.027 305.902" stroke="#D4D0CC" stroke-width="2" stroke-miterlimit="2" stroke-linecap="round"/>
<path d="M942.032 305.902C937.237 255.206 933.599 240.994 909.266 193.786" stroke="#D4D0CC" stroke-width="2" stroke-miterlimit="2" stroke-linecap="round"/>
<path d="M909.26 193.783C873.19 283.423 884.95 249.816 857.039 340.51" stroke="#D4D0CC" stroke-width="2" stroke-miterlimit="2" stroke-linecap="round"/>
<path d="M857.042 340.51C835.298 307.813 827.164 300.476 798.047 280.616" stroke="#D4D0CC" stroke-width="2" stroke-miterlimit="2" stroke-linecap="round"/>
<path d="M798.046 280.617C788.229 368.484 790.794 337.093 786.297 418.419C811.501 435.999 818.395 442.411 837.05 471.153L838.197 503.703" stroke="#D4D0CC" stroke-width="2" stroke-miterlimit="2" stroke-linecap="round"/>
<path d="M193.574 937.07C279.603 775.778 300.8 734.466 391.132 611.978C527.695 686.998 570.005 697.615 717.457 708.962C864.737 699.283 907.582 689.036 1044.68 615.633C1134.12 739.345 1155 781.163 1239.17 942.917" stroke="#D4D0CC" stroke-width="2" stroke-miterlimit="2" stroke-linecap="round"/>
<path d="M1570.33 -166.211C1482.97 -154.492 1515.13 -159.76 1430.2 -142.651C1465.65 -33.5938 1455.11 -76.4843 1477.54 43.4246C1484.13 167.182 1484.38 121.738 1474.72 241.369C1447.23 366.118 1460.12 320.99 1416.96 437.528C1357.14 548.437 1383.54 507.703 1303.8 615.746C1387.56 704.19 1356.93 670.749 1437.25 762.121" stroke="#D4D0CC" stroke-width="2" stroke-miterlimit="2" stroke-linecap="round"/>
<path d="M1571.07 539.615C1397.73 418.877 1312.78 364.116 1122.74 346.266C1075.69 425.521 1059.77 452.598 957.881 525.661C1010.55 573.566 990.731 553.332 1044.68 615.634C1126.63 555.49 1097.43 580.709 1172.93 506.91C1050.85 435.064 1025.63 434.905 953.921 435.905C905.47 450.499 922.24 442.139 880.016 470.921" stroke="#D4D0CC" stroke-width="2" stroke-miterlimit="2" stroke-linecap="round"/>
<path d="M1632.73 57.1414C1435.8 33.4955 1357.99 35.0245 1169.36 115.692C1169.53 189.482 1171.03 162.548 1161.8 233.007C1037.58 272.531 1010.38 292.063 936.172 365.41" stroke="#D4D0CC" stroke-width="2" stroke-miterlimit="2" stroke-linecap="round"/>
<path d="M936.172 365.407C941.993 329.851 940.764 343.53 942.028 305.899" stroke="#D4D0CC" stroke-width="2" stroke-miterlimit="2" stroke-linecap="round"/>
<path d="M942.03 305.903C899.197 375.617 913.129 348.471 880.16 423.852" stroke="#D4D0CC" stroke-width="2" stroke-miterlimit="2" stroke-linecap="round"/>
<path d="M880.155 423.852C877.018 386.181 874.466 375.675 857.039 340.513" stroke="#D4D0CC" stroke-width="2" stroke-miterlimit="2" stroke-linecap="round"/>
<path d="M857.042 340.51C840.188 422.066 844.542 392.219 837.051 471.152C846.915 491.604 844.41 485.63 848.597 498.075" stroke="#D4D0CC" stroke-width="2" stroke-miterlimit="2" stroke-linecap="round"/>
<path d="M852.543 495.288C864.829 381.98 884.605 342.094 932.711 247.408C1011.64 124.959 1041.34 93.8727 1146.59 2.5321C1119.07 -63.8992 1130.37 -40.387 1096.58 -99.3859C1231.48 -245.008 1293.14 -291.347 1458.28 -360.374" stroke="#D4D0CC" stroke-width="2" stroke-miterlimit="2" stroke-linecap="round"/>
<path d="M-191.555 46.9362C5.38726 25.5255 83.5319 27.9267 271.004 110.666C281.457 38.2848 276.197 64.2673 294.847 -2.23073" stroke="#D4D0CC" stroke-width="2" stroke-miterlimit="2" stroke-linecap="round"/>
<path d="M294.852 -2.23287C370.123 64.6327 342.829 37.7113 414.304 114.193C401.892 162.751 405.284 143.817 398.88 196.371C496.225 291.279 513.772 321.705 556.112 422.035C557.031 449.851 556.138 439.736 560.352 465.993" stroke="#D4D0CC" stroke-width="2" stroke-miterlimit="2" stroke-linecap="round"/>
<path d="M560.351 465.993C530.459 401.69 544.358 425.24 501.089 362.973C428.052 288.923 401.158 269.018 277.445 228.057" stroke="#D4D0CC" stroke-width="2" stroke-miterlimit="2" stroke-linecap="round"/>
<path d="M277.445 228.059C296.34 300.608 287.814 274.465 315.435 341.749C125.034 357.519 38.5806 412.296 -134.484 530.073" stroke="#D4D0CC" stroke-width="2" stroke-miterlimit="2" stroke-linecap="round"/>
<path fill-rule="evenodd" clip-rule="evenodd" d="M886.138 491.155C836.911 516.678 855.364 508.472 805.445 526.17C827.667 548.277 819.104 537.266 843.007 576.019C914.192 550.535 887.927 562.332 957.884 525.657C912.2 496.738 928.601 504.282 886.138 491.155Z" stroke="#D4D0CC" stroke-width="2" stroke-miterlimit="2" stroke-linecap="round"/>
<path d="M319.402 -637.162C390.984 -532.983 426.198 -476.982 510.603 -250.52C573.979 -278.74 550.418 -269.71 613.458 -289.022C643.372 -100.109 705.196 339.376 674.026 528.2" stroke="#D4D0CC" stroke-width="2" stroke-miterlimit="2" stroke-linecap="round"/>
<path d="M715.604 1101.1L717.895 592.898C642.11 587.159 670.76 591.615 592.957 574.619C617.042 536.132 608.451 547.054 630.66 525.191L645.681 522.064" stroke="#D4D0CC" stroke-width="2" stroke-miterlimit="2" stroke-linecap="round"/>
<path d="M724.288 -727.513L722.16 -301.615C787.799 -297.273 762.876 -300.635 830.741 -287.802C798.666 -98.7597 731.941 339.173 760.307 529.01" stroke="#D4D0CC" stroke-width="2" stroke-miterlimit="2" stroke-linecap="round"/>
<path d="M1128.3 -632.641C1032.07 -495.446 998.961 -418.845 933.215 -248.155C989.777 -213.3 969.106 -228.112 1023.72 -184.371C948.804 -47.3099 928.706 -4.59473 873.515 148.372C844.566 245.09 800.373 399.602 819.005 512.7" stroke="#D4D0CC" stroke-width="2" stroke-miterlimit="2" stroke-linecap="round"/>
<rect x="0.0234375" width="1440" height="617.031" fill="url(#paint0_radial_2750_853027)"/>
</g>
<defs>
<radialGradient id="paint0_radial_2750_853027" cx="0" cy="0" r="1" gradientUnits="userSpaceOnUse" gradientTransform="translate(720.023 308.516) rotate(90) scale(308.516 720)">
<stop offset="0.384999" stop-color="white" stop-opacity="0"/>
<stop offset="1" stop-color="white"/>
</radialGradient>
<clipPath id="clip0_2750_853027">
<rect width="1440" height="617.143" fill="white" transform="translate(0.0234375)"/>
</clipPath>
</defs>
</svg>
