<svg xmlns="http://www.w3.org/2000/svg" width="256" height="256" style="enable-background:new 0 0 256 256" xml:space="preserve"><filter filterUnits="objectBoundingBox" height="182.4%" id="b" width="187.5%" x="-43.8%" y="-29.4%"><feOffset dy="2" in="SourceAlpha" result="shadowOffsetOuter1"/><feGaussianBlur in="shadowOffsetOuter1" result="shadowBlurOuter1" stdDeviation="2"/><feColorMatrix in="shadowBlurOuter1" result="shadowMatrixOuter1" values="0 0 0 0 0 0 0 0 0 0 0 0 0 0 0 0 0 0 0.23 0"/><feMorphology in="SourceAlpha" radius=".5" result="shadowSpreadOuter2"/><feOffset dy="2" in="shadowSpreadOuter2" result="shadowOffsetOuter2"/><feGaussianBlur in="shadowOffsetOuter2" result="shadowBlurOuter2" stdDeviation="1.5"/><feColorMatrix in="shadowBlurOuter2" result="shadowMatrixOuter2" values="0 0 0 0 0 0 0 0 0 0 0 0 0 0 0 0 0 0 0.16 0"/><feMerge><feMergeNode in="shadowMatrixOuter1"/><feMergeNode in="shadowMatrixOuter2"/></feMerge></filter><linearGradient id="a" gradientUnits="userSpaceOnUse" x1="-158.767" y1="540.572" x2="-158.767" y2="527.862" gradientTransform="matrix(29 0 0 -29 4732.5 15625.303)"><stop offset="0" style="stop-color:#386ff9"/><stop offset="1" style="stop-color:#2054d4"/></linearGradient><circle cx="128.2" cy="128.2" r="127.8" style="fill-rule:evenodd;clip-rule:evenodd;fill:url(#a);stroke:#386ff9"/><path d="m111.7 189.1 10.2 11.5 10.8-12.1c9.2-10.3 20-19.3 32-26.4l27-16.1-10.5-33 10.6-62-48.5 18.9H98l-46.3-19L62.2 113l-11.4 33 27.7 15.9c12.4 7.3 23.6 16.5 33.2 27.2zm-8-19c-6.2-5.2-12.9-9.9-20-14l28.2 7.3-8.2 6.7zm17.9-16.4-45-37.4h89.3l-44.3 37.4zm17.3 16.4-8.3-6.7 28.2-7.3c-7 4.1-13.6 8.8-19.9 14zm-3.6-14 40.8-35.1 6.1 22.4-46.9 12.7zm47-93.6-6.7 39.8-23.8-27.8 30.5-12zm-83.6 14h42.4l27.1 32.8h-94l24.5-32.8zm-36.2-14 28.2 11.8-21.6 28-6.6-39.8zM69 121l40.6 32.8-47-12.1L69 121z" style="filter:url(#b)" transform="translate(7 7)"/><path d="m111.7 189.1 10.2 11.5 10.8-12.1c9.2-10.3 20-19.3 32-26.4l27-16.1-10.5-33 10.6-62-48.5 18.9H98l-46.3-19L62.2 113l-11.4 33 27.7 15.9c12.4 7.3 23.6 16.5 33.2 27.2zm-8-19c-6.2-5.2-12.9-9.9-20-14l28.2 7.3-8.2 6.7zm17.9-16.4-45-37.4h89.3l-44.3 37.4zm17.3 16.4-8.3-6.7 28.2-7.3c-7 4.1-13.6 8.8-19.9 14zm-3.6-14 40.8-35.1 6.1 22.4-46.9 12.7zm47-93.6-6.7 39.8-23.8-27.8 30.5-12zm-83.6 14h42.4l27.1 32.8h-94l24.5-32.8zm-36.2-14 28.2 11.8-21.6 28-6.6-39.8zM69 121l40.6 32.8-47-12.1L69 121z" style="fill:#fff" transform="translate(7 7)"/></svg>