<svg width="500" height="500" viewBox="0 0 500 500" fill="none" xmlns="http://www.w3.org/2000/svg">
<rect width="500" height="500" fill="black"/>
<path d="M260.785 361.214C221.337 361.214 186.286 347.538 159.026 321.415C140.767 303.918 126.686 281.442 117.173 254.611C107.768 228.086 103 197.645 103 164.134H164.413C164.413 190.616 167.991 214.135 175.047 234.037C181.323 251.738 190.219 266.188 201.488 276.987C218.336 293.133 239.954 300.744 265.737 299.609C289.5 298.563 307.834 291.147 320.23 277.566C330.548 266.262 336.229 250.978 336.229 234.531C336.37 225.178 332.885 216.135 326.506 209.301C323.517 206.147 319.906 203.647 315.904 201.959C311.901 200.271 307.593 199.433 303.249 199.497C297.253 199.542 291.481 201.789 287.029 205.812C282.747 209.83 277.644 218.113 277.644 234.758H216.23C216.23 196.089 231.894 173.273 245.033 160.942C260.871 146.243 281.655 138.054 303.25 138.001C315.881 137.933 328.393 140.448 340.019 145.394C351.644 150.341 362.139 157.613 370.858 166.765C388.131 184.823 397.643 208.889 397.643 234.531C397.643 266.371 386.249 296.388 365.562 319.054C349.2 336.98 319.067 358.817 268.433 361.045C265.867 361.158 263.318 361.214 260.785 361.214Z" fill="white"/>
</svg>
