<svg width="80" height="80" viewBox="0 0 80 80" fill="none" xmlns="http://www.w3.org/2000/svg">
<g clip-path="url(#clip0_133_194)">
<path d="M80 40C80 62.0914 62.0914 80 40 80C17.9086 80 0 62.0914 0 40C0 17.9086 17.9086 0 40 0C62.0914 0 80 17.9086 80 40Z" fill="#051212"/>
<path d="M65.6382 40.0831C65.6853 44.3319 64.7981 48.3919 63.0553 52.2709C60.5666 57.7943 54.5999 62.3109 49.1513 57.5033C44.7078 53.5849 43.8834 45.6301 37.2259 44.4657C28.4172 43.3955 28.2052 53.6321 22.4505 54.7887C16.0364 56.0949 13.9088 45.2839 14.003 40.3741C14.0972 35.4644 15.4004 28.5639 20.9746 28.5639C27.3887 28.5639 27.8205 38.2969 35.9619 37.7697C44.0248 37.219 44.166 27.0925 49.4339 22.7571C53.9796 19.0119 59.3261 21.7579 62.0032 26.2664C64.4841 30.4365 65.5754 35.3306 65.6303 40.0831H65.6382Z" fill="#21F1A6" fill-opacity="0.3"/>
<path d="M27.1582 41.4251C27.1582 38.0209 26.3049 35.2808 25.1006 33.4143C23.9597 31.6463 22.6026 30.7825 21.4023 30.5999L21.165 30.5725C19.7586 30.4615 18.5741 31.1369 17.6016 32.9924C16.5964 34.9105 16.0077 37.8304 16 41.3547C16.2511 44.84 16.9619 47.8992 18.0205 50.0217C19.108 52.2021 20.2805 52.9124 21.3223 52.9124V54.9124L21.1201 54.9085C16.9173 54.7196 14.5058 48.6323 14 41.4251C14 33.9758 16.4409 28.194 21.3223 28.5794C25.4328 28.904 29.1582 33.9759 29.1582 41.4251L29.1475 42.1184C28.9377 49.2452 25.5147 54.9122 21.3223 54.9124V52.9124C22.4753 52.9123 23.8933 52.0926 25.1338 49.9573C26.3449 47.8725 27.1582 44.8603 27.1582 41.4251Z" fill="url(#paint0_linear_133_194)"/>
<path d="M64.2836 39.8828C64.2836 35.0742 63.1916 30.7566 61.4653 27.5674L61.1118 26.9443C59.2245 23.7772 56.8393 22.1064 54.4662 22.0049L54.2358 22C51.8643 22.0002 49.4642 23.5719 47.5453 26.6426L47.3608 26.9443C45.4311 30.1826 44.189 34.7535 44.1889 39.8828C44.1889 45.0123 45.4311 49.5838 47.3608 52.8223L47.5453 53.124C49.4642 56.1945 51.8643 57.7664 54.2358 57.7666C56.6842 57.7666 59.1635 56.0918 61.1118 52.8223L61.4653 52.2002C63.1918 49.0108 64.2836 44.6919 64.2836 39.8828ZM66.2836 39.8828C66.2836 45.1404 65.0545 49.9392 63.0287 53.5049L62.8305 53.8457C60.6923 57.4342 57.6683 59.7666 54.2358 59.7666C50.9108 59.7664 47.9705 57.5775 45.8461 54.1787L45.643 53.8457C43.4992 50.248 42.1889 45.31 42.1889 39.8828C42.189 34.4558 43.4993 29.5185 45.643 25.9209L45.8461 25.5879C47.9705 22.1889 50.9109 20.0002 54.2358 20L54.5571 20.0068C57.857 20.1472 60.7592 22.4447 62.8305 25.9209L63.0287 26.2617C65.0545 29.8272 66.2836 34.6254 66.2836 39.8828Z" fill="url(#paint1_linear_133_194)"/>
<path d="M58.7305 40.1401C58.7305 36.4079 57.8867 33.0664 56.5616 30.6078L56.2901 30.1274C54.886 27.7613 53.1534 26.5273 51.462 26.3823L51.1241 26.3676C49.4399 26.3677 47.6895 27.4538 46.2432 29.6694L45.9581 30.1274C44.4777 32.6219 43.5177 36.159 43.5176 40.1401C43.5176 44.1211 44.4778 47.6582 45.9581 50.1528L46.2432 50.6108C47.6896 52.8264 49.4399 53.9125 51.1241 53.9125C52.9208 53.9125 54.7924 52.6768 56.2901 50.1528L56.5616 49.6733C57.8869 47.2146 58.7305 43.8725 58.7305 40.1401ZM60.7305 40.1401C60.7305 44.1503 59.8275 47.8308 58.3194 50.6264L58.0098 51.1733C56.3239 54.0144 53.909 55.9125 51.1241 55.9125C48.5134 55.9125 46.2281 54.244 44.5635 51.6948L44.2383 51.1733C42.5452 48.3199 41.5176 44.4175 41.5176 40.1401C41.5177 35.8626 42.5451 31.9602 44.2383 29.1069L44.5635 28.5854C46.2281 26.0362 48.5135 24.3677 51.1241 24.3676L51.3839 24.3735C54.0591 24.4874 56.3766 26.3547 58.0098 29.1069L58.3194 29.6547C59.8274 32.4502 60.7305 36.1301 60.7305 40.1401Z" fill="url(#paint2_linear_133_194)"/>
<path d="M49.239 40.4785C49.239 38.8231 48.8947 37.3658 48.3786 36.3193L48.2731 36.1152C47.7137 35.0854 47.1196 34.7281 46.697 34.6874L46.6149 34.6835C46.2161 34.6835 45.6323 34.9767 45.069 35.9189L44.9567 36.1152C44.3826 37.1721 43.9909 38.7129 43.9909 40.4785C43.9909 42.244 44.3826 43.7839 44.9567 44.8408L45.069 45.038C45.6323 45.9799 46.2161 46.2734 46.6149 46.2734C47.0405 46.2733 47.6764 45.9393 48.2731 44.8408L48.3786 44.6376C48.8947 43.5911 49.2389 42.1338 49.239 40.4785ZM51.239 40.4785C51.2389 42.3845 50.8466 44.1572 50.1696 45.5273L50.0309 45.7958C49.2873 47.1647 48.1184 48.2733 46.6149 48.2734C45.2053 48.2734 44.09 47.2985 43.3434 46.0488L43.1989 45.7958C42.4368 44.393 41.9909 42.5114 41.9909 40.4785C41.9909 38.4455 42.4368 36.564 43.1989 35.1611L43.3434 34.9072C44.0901 33.6576 45.2055 32.6835 46.6149 32.6835L46.8923 32.6962C48.2625 32.8228 49.3337 33.8775 50.0309 35.1611L50.1696 35.4296C50.8465 36.7997 51.239 38.5725 51.239 40.4785Z" fill="url(#paint3_linear_133_194)"/>
<path d="M6 40C5.99999 49.2047 9.68264 57.5251 15.6143 63.6338L16.1953 64.2178C22.2904 70.2021 30.4269 73.772 39.1543 73.9893L40 74C48.7632 74 56.9828 70.6168 63.208 64.7891L63.8037 64.2178C70.075 58.0608 74 49.5015 74 40C74 30.4985 70.075 21.9393 63.8037 15.7822L63.208 15.2109C56.9828 9.38357 48.7632 6.00001 40 6L40 5L40.8721 5.01075C49.5682 5.2274 57.6921 8.67843 63.8906 14.4805L64.5049 15.0684C70.7562 21.2058 74.7451 29.6684 74.9883 39.0859L75 40C75 49.4777 71.2063 58.0442 65.1025 64.3301L64.5049 64.9307C58.0316 71.2864 49.3152 75 40 75L39.1289 74.9893C30.1418 74.7655 21.7662 71.0878 15.4951 64.9307C9.04246 58.5954 4.99999 49.7834 5 40L5.01171 39.0859C5.25484 29.6684 9.24405 21.2058 15.4951 15.0684L16.1084 14.4805C22.5136 8.48462 30.9754 5.0001 40 5L40 6C30.9535 6.0001 22.4868 9.60501 16.1953 15.7822L15.6143 16.3662C9.6827 22.475 6 30.7954 6 40Z" fill="url(#paint4_linear_133_194)"/>
<path d="M0.999996 40C0.999995 50.5586 5.22475 60.1027 12.0283 67.1094L12.6943 67.7793C19.6852 74.6431 29.0182 78.739 39.0293 78.9883L40 79C50.0524 79 59.4808 75.1189 66.6211 68.4346L67.3047 67.7793C74.4978 60.7172 79 50.8991 79 40C79 29.101 74.4978 19.2829 67.3047 12.2207L66.6211 11.5654C59.4808 4.88149 50.0524 1.00001 40 1L40 4.13248e-06L40.9961 0.0126995C50.9348 0.260175 60.2196 4.20386 67.3037 10.835L68.0049 11.5068C75.1492 18.521 79.7084 28.1922 79.9863 38.9551L80 40C80 50.8317 75.6642 60.6218 68.6885 67.8057L68.0049 68.4932C60.6068 75.7566 50.6458 80 40 80L39.0039 79.9873C28.7333 79.7314 19.1609 75.5295 11.9941 68.4932C4.61966 61.2528 -5.10996e-06 51.1811 -4.13248e-06 40L0.0136678 38.9551C0.2916 28.1923 4.85013 18.521 11.9941 11.5068L12.6953 10.835C20.0155 3.98252 29.6861 0.000110042 40 4.13248e-06L40 1C29.6226 1.00011 19.9106 5.13552 12.6943 12.2207L12.0283 12.8906C5.22481 19.8974 0.999997 29.4415 0.999996 40Z" fill="#21F1A6"/>
<path d="M75 40C75 30.5317 71.2155 21.9711 65.1025 15.6758L64.5039 15.0742C58.2202 8.90471 49.8453 5.23413 40.8701 5.01074L40 5C30.9887 5.00001 22.5294 8.47715 16.1123 14.4844L15.4971 15.0742C9.03326 21.4204 5 30.2266 5 40C5 49.7731 9.03264 58.5796 15.4961 64.9258H15.4971C21.9837 71.2941 30.6979 75 40 75V79L39.0283 78.9883C29.3382 78.7469 20.2859 74.9009 13.3789 68.4355L12.6953 67.7803C5.50496 60.7208 1 50.9016 1 40C1 29.439 5.2279 19.8939 12.0293 12.8896L12.6953 12.2197C19.9084 5.13769 29.6202 1.00002 40 1L40.9707 1.01172C50.9848 1.26108 60.3179 5.35899 67.3057 12.2197C74.4958 19.2791 79 29.0985 79 40C79 50.9015 74.4958 60.7208 67.3057 67.7803L66.6221 68.4355C59.4849 75.1168 50.0561 78.9999 40 79V75C49.3031 74.9999 58.0176 71.2952 64.5039 64.9268L65.1025 64.3242C71.2154 58.0288 75 49.4682 75 40Z" fill="url(#paint5_linear_133_194)"/>
</g>
<defs>
<linearGradient id="paint0_linear_133_194" x1="14" y1="41.2963" x2="28.6442" y2="41.2963" gradientUnits="userSpaceOnUse">
<stop offset="0.144741" stop-color="#21F1A6" stop-opacity="0"/>
<stop offset="1" stop-color="#21F1A6"/>
</linearGradient>
<linearGradient id="paint1_linear_133_194" x1="65.785" y1="39.3971" x2="45.0813" y2="39.3971" gradientUnits="userSpaceOnUse">
<stop stop-color="#21F1A6"/>
<stop offset="1" stop-color="#21F1A6" stop-opacity="0"/>
</linearGradient>
<linearGradient id="paint2_linear_133_194" x1="60.1216" y1="39.7599" x2="43.992" y2="39.7599" gradientUnits="userSpaceOnUse">
<stop stop-color="#21F1A6"/>
<stop offset="1" stop-color="#21F1A6" stop-opacity="0"/>
</linearGradient>
<linearGradient id="paint3_linear_133_194" x1="50.4031" y1="40.3033" x2="43.6117" y2="40.3033" gradientUnits="userSpaceOnUse">
<stop stop-color="#21F1A6"/>
<stop offset="1" stop-color="#21F1A6" stop-opacity="0"/>
</linearGradient>
<linearGradient id="paint4_linear_133_194" x1="3.41145" y1="40.9012" x2="69.0044" y2="40.9012" gradientUnits="userSpaceOnUse">
<stop stop-color="#21F1A6" stop-opacity="0.6"/>
<stop offset="1" stop-color="#21F1A6" stop-opacity="0.2"/>
</linearGradient>
<linearGradient id="paint5_linear_133_194" x1="80.7701" y1="38.9958" x2="7.68077" y2="38.9958" gradientUnits="userSpaceOnUse">
<stop stop-color="#21F1A6"/>
<stop offset="1" stop-color="#21F1A6" stop-opacity="0.2"/>
</linearGradient>
<clipPath id="clip0_133_194">
<rect width="80" height="80" fill="white"/>
</clipPath>
</defs>
</svg>
