<?xml version="1.0" encoding="UTF-8"?>
<svg id="Layer_1" xmlns="http://www.w3.org/2000/svg" viewBox="0 0 1080 1080">
  <defs>
    <style>
      .cls-1 {
        fill: #e5e5e4;
      }

      .cls-2 {
        fill: #ccc;
      }

      .cls-3 {
        fill: #fefeff;
      }

      .cls-4 {
        fill: #fff;
      }

      .cls-5 {
        fill: #2e4df3;
      }

      .cls-6 {
        fill: #1a0c6d;
      }

      .cls-7 {
        fill: #192e46;
      }
    </style>
  </defs>
  <circle class="cls-5" cx="540" cy="540" r="540"/>
  <path class="cls-7" d="M802.84,507.08l-42.67-111.12-31.85,12.23c-55.23-95.66-195.38-338.4-195.38-338.4l-195.38,338.4-31.86-12.23-42.67,111.12,103.87,39.88-103.87,39.88,42.67,111.12,31.77-12.2,195.47,338.55,20.71-35.86c58.25-100.9,116.51-201.8,174.76-302.69l31.77,12.2,42.67-111.12-103.87-39.88,103.87-39.88ZM439.51,646.59c25.4,23.88,58.41,36.98,93.43,36.98s68.03-13.1,93.43-36.98l49.57,19.03-143,79.13-143-79.13,49.57-19.03ZM532.94,349.36l142.79,79.02-49.51,19.01c-25.38-23.79-58.33-36.84-93.28-36.84s-67.9,13.05-93.28,36.84l-49.51-19.01,142.79-79.02Z"/>
  <g>
    <g>
      <polygon class="cls-3" points="780.88 487.11 754.31 417.92 540 500.21 325.69 417.92 299.12 487.11 436.63 539.9 299.12 592.7 325.69 661.89 540 579.6 754.31 661.89 780.88 592.7 643.37 539.9 780.88 487.11"/>
      <g>
        <path class="cls-2" d="M620.64,459.36c-20.64-20.64-49.15-33.4-80.64-33.4v114.05l80.64,80.64c20.64-20.64,33.4-49.15,33.4-80.64s-12.76-60-33.4-80.64Z"/>
        <path class="cls-1" d="M540,540l-80.64,80.64c20.64,20.64,49.15,33.4,80.64,33.4s60-12.77,80.64-33.4l-80.64-80.64Z"/>
        <path class="cls-3" d="M459.36,459.36c-20.64,20.64-33.4,49.15-33.4,80.64s12.76,60,33.4,80.64l80.64-80.64v-114.05c-31.49,0-60,12.77-80.64,33.4Z"/>
      </g>
    </g>
    <g>
      <g>
        <path class="cls-3" d="M717.3,414.75c-59.1-32.7-118.2-65.41-177.3-98.11-59.1,32.7-118.2,65.41-177.3,98.11l177.3-307.09c59.1,102.37,118.2,204.73,177.3,307.09Z"/>
        <path class="cls-2" d="M717.3,414.75c-59.1-32.7-118.2-65.41-177.3-98.11V107.66c59.1,102.37,118.2,204.73,177.3,307.09Z"/>
      </g>
      <g>
        <path class="cls-3" d="M717.3,665.25c-59.1,32.7-118.2,65.41-177.3,98.11-59.1-32.7-118.2-65.41-177.3-98.11l177.3,307.09c59.1-102.37,118.2-204.73,177.3-307.09Z"/>
        <path class="cls-2" d="M717.3,665.25c-59.1,32.7-118.2,65.41-177.3,98.11v208.98c59.1-102.37,118.2-204.73,177.3-307.09Z"/>
      </g>
    </g>
  </g>
  <circle class="cls-6" cx="803.43" cy="828.97" r="97.68"/>
  <rect class="cls-4" x="752.78" y="771.09" width="28.94" height="57.88"/>
  <polygon class="cls-4" points="810.66 857.91 810.66 828.97 796.19 828.97 796.19 857.91 781.72 857.91 781.72 828.97 752.78 828.97 752.78 886.85 781.72 886.85 796.19 886.85 810.66 886.85 825.13 886.85 839.6 886.85 839.6 857.91 825.13 857.91 810.66 857.91"/>
  <rect class="cls-4" x="839.6" y="771.09" width="14.47" height="28.94"/>
  <polygon class="cls-4" points="825.13 771.09 811.24 771.09 810.66 771.09 796.77 771.09 796.77 785.56 810.66 785.56 810.66 828.97 825.13 828.97 839.6 828.97 839.6 800.03 825.13 800.03 825.13 771.09"/>
</svg>